<svg width="512" height="512" viewBox="0 0 512 512" fill="none" xmlns="http://www.w3.org/2000/svg">
<circle cx="256" cy="256" r="256" fill="#EF9A9A"/>
<path d="M209.472 230.4L245.76 204.8H290.458L276.48 166.4H243.2V140.8H294.4L308.378 179.2H358.4V217.6H322.355L340.992 268.825C355.133 269.275 368.614 274.913 378.864 284.665C389.114 294.417 395.417 307.601 396.57 321.702C397.723 335.803 393.646 349.835 385.117 361.123C376.587 372.41 364.201 380.164 350.321 382.905C336.441 385.646 322.038 383.183 309.857 375.985C297.677 368.787 288.572 357.358 284.278 343.877C279.985 330.396 280.803 315.807 286.576 302.89C292.35 289.974 302.676 279.634 315.584 273.843L299.763 230.4H287.642L267.392 305.536L229.952 319.219C230.251 321.574 230.4 323.968 230.4 326.4C230.397 336.959 227.491 347.314 222.001 356.334C216.51 365.353 208.646 372.69 199.267 377.541C189.889 382.393 179.357 384.574 168.823 383.845C158.289 383.116 148.158 379.505 139.538 373.408C130.917 367.31 124.138 358.96 119.943 349.27C115.747 339.58 114.295 328.924 115.747 318.465C117.198 308.006 121.497 298.147 128.173 289.966C134.848 281.785 143.645 275.596 153.6 272.077V256H128V230.4H209.472ZM172.8 358.4C181.287 358.4 189.426 355.028 195.427 349.027C201.429 343.026 204.8 334.887 204.8 326.4C204.8 317.913 201.429 309.774 195.427 303.772C189.426 297.771 181.287 294.4 172.8 294.4C164.313 294.4 156.174 297.771 150.173 303.772C144.171 309.774 140.8 317.913 140.8 326.4C140.8 334.887 144.171 343.026 150.173 349.027C156.174 355.028 164.313 358.4 172.8 358.4ZM339.2 358.4C347.687 358.4 355.826 355.028 361.827 349.027C367.829 343.026 371.2 334.887 371.2 326.4C371.2 317.913 367.829 309.774 361.827 303.772C355.826 297.771 347.687 294.4 339.2 294.4C330.713 294.4 322.574 297.771 316.573 303.772C310.571 309.774 307.2 317.913 307.2 326.4C307.2 334.887 310.571 343.026 316.573 349.027C322.574 355.028 330.713 358.4 339.2 358.4Z" fill="black"/>
</svg>
