<svg width="512" height="512" viewBox="0 0 512 512" fill="none" xmlns="http://www.w3.org/2000/svg">
<circle cx="256" cy="256" r="256" fill="#EF9A9A"/>
<path fill-rule="evenodd" clip-rule="evenodd" d="M209.51 157.306C210.829 152.388 214.047 148.195 218.456 145.649C222.866 143.104 228.106 142.414 233.024 143.731L338.112 171.891C340.548 172.543 342.831 173.669 344.832 175.203C346.833 176.738 348.511 178.652 349.773 180.835C351.034 183.019 351.852 185.429 352.182 187.929C352.511 190.429 352.345 192.969 351.693 195.405L350.861 198.496L365.03 202.291C365.842 202.509 366.604 202.884 367.27 203.396C367.937 203.908 368.497 204.546 368.917 205.274C369.337 206.002 369.61 206.806 369.719 207.639C369.829 208.472 369.773 209.319 369.555 210.131L363.757 231.763C363.539 232.575 363.164 233.336 362.652 234.003C362.14 234.67 361.502 235.229 360.774 235.65C360.046 236.07 359.242 236.342 358.409 236.452C357.576 236.561 356.729 236.506 355.917 236.288L341.754 232.493L339.091 242.445C339.347 242.91 339.578 243.394 339.782 243.898L345.274 257.594C346.305 260.162 346.476 262.996 345.76 265.67L337.888 295.046C337.453 296.67 336.702 298.193 335.679 299.526C334.655 300.86 333.379 301.979 331.923 302.819C330.467 303.66 328.859 304.205 327.192 304.424C325.526 304.643 323.832 304.532 322.208 304.096L285.453 294.246L294.726 259.648C294.944 258.836 295 257.989 294.89 257.156C294.781 256.322 294.508 255.519 294.088 254.791C293.668 254.063 293.108 253.425 292.442 252.913C291.775 252.401 291.014 252.026 290.202 251.808L234.56 236.896C232.92 236.458 231.174 236.69 229.705 237.54C228.236 238.389 227.165 239.788 226.726 241.427L217.446 276.026L177.549 265.338C175.925 264.902 174.403 264.152 173.069 263.128C171.735 262.104 170.616 260.828 169.776 259.372C168.936 257.916 168.39 256.309 168.171 254.642C167.952 252.975 168.064 251.281 168.499 249.658L176.16 221.05C177.003 217.912 179.007 215.212 181.766 213.498L196.435 204.378C196.619 204.262 196.8 204.156 196.979 204.058L199.571 194.394L184.762 190.426C183.123 189.986 181.726 188.914 180.878 187.445C180.03 185.976 179.799 184.231 180.237 182.592L186.035 160.96C186.252 160.147 186.627 159.386 187.139 158.718C187.65 158.051 188.288 157.49 189.016 157.07C189.744 156.649 190.548 156.376 191.382 156.266C192.216 156.156 193.063 156.211 193.875 156.429L208.678 160.397L209.51 157.306ZM229.709 156.09C228.069 155.652 226.323 155.883 224.854 156.733C223.385 157.583 222.313 158.981 221.875 160.621L211.936 197.709L329.389 229.184L339.328 192.09C339.766 190.451 339.535 188.705 338.687 187.236C337.838 185.767 336.442 184.695 334.803 184.256L229.709 156.09ZM200.115 254.176C201.333 254.503 202.603 254.586 203.853 254.422C205.103 254.257 206.309 253.848 207.401 253.218C208.493 252.588 209.45 251.749 210.218 250.748C210.986 249.748 211.549 248.607 211.875 247.389C212.202 246.171 212.285 244.901 212.121 243.651C211.956 242.401 211.547 241.195 210.917 240.103C210.287 239.011 209.448 238.054 208.448 237.286C207.447 236.518 206.306 235.955 205.088 235.629C202.629 234.969 200.008 235.314 197.802 236.587C195.597 237.86 193.987 239.956 193.328 242.416C192.669 244.875 193.013 247.496 194.286 249.702C195.559 251.907 197.656 253.517 200.115 254.176ZM323.149 277.203C322.848 278.447 322.3 279.619 321.54 280.648C320.779 281.678 319.82 282.545 318.719 283.198C317.618 283.852 316.398 284.278 315.13 284.453C313.862 284.628 312.571 284.548 311.335 284.216C310.098 283.885 308.94 283.31 307.929 282.525C306.918 281.739 306.075 280.76 305.448 279.643C304.821 278.527 304.424 277.297 304.28 276.025C304.136 274.753 304.247 273.465 304.608 272.237C305.315 269.832 306.933 267.8 309.118 266.573C311.304 265.346 313.882 265.022 316.303 265.67C318.723 266.319 320.795 267.888 322.074 270.043C323.353 272.198 323.739 274.768 323.149 277.203Z" fill="black"/>
<path d="M198.4 352C198.4 345.216 195.366 338.701 189.965 333.901C184.563 329.101 177.235 326.4 169.6 326.4C161.965 326.4 154.637 329.101 149.235 333.901C143.834 338.701 140.8 345.21 140.8 352V364.8C140.8 366.497 141.474 368.125 142.675 369.325C143.875 370.526 145.503 371.2 147.2 371.2H323.2C324.897 371.2 326.525 370.526 327.726 369.325C328.926 368.125 329.6 366.497 329.6 364.8C329.6 363.103 328.926 361.475 327.726 360.274C326.525 359.074 324.897 358.4 323.2 358.4H262.4C262.4 355.005 261.051 351.749 258.651 349.349C256.251 346.949 252.995 345.6 249.6 345.6C246.205 345.6 242.95 346.949 240.549 349.349C238.149 351.749 236.8 355.005 236.8 358.4C236.8 353.308 234.777 348.424 231.177 344.824C227.576 341.223 222.692 339.2 217.6 339.2C212.508 339.2 207.624 341.223 204.024 344.824C200.423 348.424 198.4 353.308 198.4 358.4V352ZM215.328 287.654L178.234 277.715L173.37 295.859C173.152 296.671 173.096 297.518 173.206 298.351C173.315 299.185 173.588 299.988 174.008 300.716C174.428 301.444 174.988 302.083 175.655 302.594C176.321 303.106 177.083 303.482 177.894 303.699L202.624 310.323C203.436 310.541 204.283 310.597 205.116 310.487C205.95 310.378 206.753 310.105 207.481 309.685C208.209 309.265 208.847 308.705 209.359 308.038C209.871 307.371 210.246 306.61 210.464 305.798L215.328 287.654ZM284.448 306.47L321.542 316.41L316.755 334.278C316.538 335.09 316.162 335.851 315.65 336.518C315.139 337.185 314.501 337.745 313.773 338.165C313.044 338.585 312.241 338.858 311.407 338.967C310.574 339.077 309.727 339.021 308.915 338.803L284.186 332.179C283.374 331.962 282.613 331.586 281.946 331.074C281.279 330.563 280.719 329.924 280.299 329.196C279.879 328.468 279.606 327.665 279.497 326.831C279.387 325.998 279.443 325.151 279.661 324.339L284.448 306.47ZM230.803 275.648L237.434 250.918L253.536 255.238L246.317 279.808L230.803 275.648ZM258.688 283.123L265.901 258.547L280.704 262.515L274.08 287.245L258.688 283.123Z" fill="black"/>
</svg>
