<svg width="512" height="512" viewBox="0 0 512 512" fill="none" xmlns="http://www.w3.org/2000/svg">
<circle cx="256" cy="256" r="256" fill="#EF9A9A"/>
<g clip-path="url(#clip0_21_23)">
<path fill-rule="evenodd" clip-rule="evenodd" d="M292.678 302.188H229.2C227.731 302.188 226.409 301.287 225.862 299.928C225.659 299.416 205.084 248.912 175.25 248.912C173.116 248.912 170.941 249.178 168.797 249.7C168.516 249.766 168.234 249.8 167.947 249.8H129.169C127.837 249.8 126.616 249.062 125.991 247.887C125.369 246.712 125.441 245.291 126.191 244.187L149.934 209.078C150.606 208.091 151.722 207.497 152.912 207.497H211.381C212.562 207.497 213.669 208.078 214.341 209.05C214.444 209.2 225.059 224.25 239.681 224.25C252.662 224.25 265.3 212.7 277.244 189.919C277.866 188.731 279.094 187.987 280.431 187.987H322.75C322.809 187.987 322.869 187.994 322.934 187.994C324.087 188.053 351.319 189.669 365.106 207.016C371.894 215.559 374.194 226.331 371.947 239.031C371.631 240.831 370.006 242.097 368.184 241.994C368.184 241.994 367.516 241.953 366.328 241.953C356.531 241.953 307.112 244.716 296.206 299.297C295.872 300.975 294.391 302.188 292.678 302.188Z" fill="black"/>
<mask id="mask0_21_23" style="mask-type:luminance" maskUnits="userSpaceOnUse" x="278" y="150" width="49" height="46">
<path d="M278 150.384H326.8V195.6H278V150.384Z" fill="white"/>
</mask>
<g mask="url(#mask0_21_23)">
<path fill-rule="evenodd" clip-rule="evenodd" d="M322.75 195.184C321.228 195.184 319.812 194.213 319.322 192.684L308.087 157.569H281.759C279.778 157.569 278.166 155.959 278.166 153.969C278.166 151.984 279.778 150.372 281.759 150.372H310.712C312.275 150.372 313.659 151.384 314.141 152.872L326.172 190.491C326.775 192.384 325.734 194.409 323.847 195.016C323.481 195.131 323.109 195.184 322.75 195.184Z" fill="black"/>
</g>
<path fill-rule="evenodd" clip-rule="evenodd" d="M364.884 359.881H347.897C345.916 359.881 344.303 358.269 344.303 356.281V352.731C340.262 351.666 336.412 350.069 332.791 347.959L330.281 350.472C329.609 351.15 328.694 351.528 327.741 351.528C326.787 351.528 325.872 351.15 325.2 350.472L313.194 338.45C312.516 337.778 312.137 336.859 312.137 335.906C312.137 334.953 312.516 334.034 313.194 333.362L315.703 330.85C313.594 327.234 312 323.378 310.928 319.337H307.387C305.397 319.337 303.791 317.725 303.791 315.741V298.741C303.791 296.753 305.397 295.141 307.387 295.141H310.928C311.994 291.1 313.594 287.244 315.697 283.622L313.187 281.116C312.516 280.437 312.137 279.522 312.137 278.566C312.137 277.612 312.516 276.697 313.187 276.025L325.2 264.006C326.603 262.597 328.878 262.597 330.281 264.006L332.791 266.512C336.412 264.409 340.262 262.809 344.303 261.741V258.197C344.303 256.206 345.909 254.6 347.897 254.6H364.878C366.869 254.6 368.472 256.206 368.472 258.197V261.741C372.512 262.809 376.366 264.409 379.984 266.512L382.494 264C383.166 263.328 384.081 262.953 385.034 262.953C385.987 262.953 386.903 263.328 387.581 264L399.587 276.025C400.259 276.703 400.637 277.612 400.637 278.566C400.637 279.525 400.259 280.437 399.587 281.116L397.078 283.622C399.181 287.244 400.781 291.1 401.847 295.141H405.394C407.378 295.141 408.991 296.753 408.991 298.741V315.734C408.991 317.725 407.378 319.331 405.394 319.331H401.847C400.781 323.372 399.181 327.228 397.078 330.85L399.587 333.362C400.266 334.041 400.644 334.953 400.644 335.906C400.644 336.866 400.259 337.778 399.587 338.456L387.575 350.472C386.903 351.144 385.987 351.522 385.034 351.522C384.081 351.522 383.166 351.144 382.494 350.472L379.984 347.959C376.369 350.066 372.519 351.666 368.478 352.731V356.281C368.478 358.269 366.869 359.881 364.884 359.881ZM356.387 329.791C343.959 329.791 333.853 319.675 333.853 307.237C333.853 294.806 343.959 284.691 356.387 284.691C368.816 284.691 378.922 294.806 378.922 307.237C378.922 319.675 368.816 329.791 356.387 329.791Z" fill="black"/>
<path fill-rule="evenodd" clip-rule="evenodd" d="M152.919 214.691C151.859 214.691 150.816 214.228 150.103 213.338L126.741 184.044C125.506 182.491 125.759 180.222 127.309 178.981C128.863 177.747 131.128 177.997 132.363 179.55L155.722 208.85C156.963 210.403 156.706 212.666 155.153 213.906C154.494 214.434 153.703 214.691 152.919 214.691Z" fill="black"/>
<path fill-rule="evenodd" clip-rule="evenodd" d="M164.119 200.3V195.594C164.119 191.244 167.647 187.713 171.984 187.713H192.309C196.653 187.713 200.181 191.244 200.181 195.594V200.3H164.119Z" fill="black"/>
<mask id="mask1_21_23" style="mask-type:luminance" maskUnits="userSpaceOnUse" x="102" y="255" width="106" height="106">
<path d="M102 255.6H207.6V360.984H102V255.6Z" fill="white"/>
</mask>
<g mask="url(#mask1_21_23)">
<path fill-rule="evenodd" clip-rule="evenodd" d="M163.303 360.997H146.322C144.331 360.997 142.728 359.384 142.728 357.397V353.847C138.688 352.781 134.834 351.178 131.216 349.075L128.706 351.587C128.034 352.259 127.119 352.644 126.166 352.644C125.213 352.644 124.297 352.259 123.625 351.587L111.613 339.566C110.941 338.894 110.563 337.975 110.563 337.022C110.563 336.069 110.941 335.15 111.613 334.478L114.122 331.966C112.019 328.35 110.425 324.487 109.353 320.453H105.806C103.822 320.453 102.209 318.841 102.209 316.856V299.856C102.209 297.869 103.822 296.256 105.806 296.256H109.353C110.419 292.216 112.019 288.359 114.122 284.737L111.613 282.225C110.941 281.553 110.556 280.634 110.556 279.681C110.556 278.728 110.934 277.812 111.613 277.141L123.625 265.116C125.028 263.712 127.303 263.712 128.706 265.116L131.216 267.628C134.834 265.525 138.688 263.922 142.722 262.856V259.306C142.722 257.322 144.331 255.709 146.316 255.709H163.303C165.284 255.709 166.897 257.322 166.897 259.306V262.856C170.938 263.922 174.788 265.525 178.409 267.628L180.919 265.116C181.591 264.444 182.506 264.062 183.459 264.062C184.413 264.062 185.328 264.444 186 265.116L198.013 277.141C198.684 277.812 199.063 278.728 199.063 279.681C199.063 280.634 198.684 281.553 198.006 282.225L195.497 284.737C197.606 288.359 199.2 292.216 200.272 296.256H203.813C205.803 296.256 207.409 297.862 207.409 299.856V316.85C207.409 318.841 205.803 320.447 203.813 320.447H200.272C199.206 324.487 197.606 328.344 195.503 331.966L198.013 334.478C198.684 335.15 199.063 336.069 199.063 337.022C199.063 337.975 198.684 338.894 198.013 339.566L186 351.587C185.328 352.259 184.413 352.637 183.459 352.637C182.506 352.637 181.591 352.259 180.913 351.581L178.409 349.075C174.788 351.178 170.938 352.781 166.897 353.847V357.397C166.897 359.384 165.291 360.997 163.303 360.997ZM154.813 330.906C142.384 330.906 132.278 320.787 132.278 308.353C132.278 295.922 142.384 285.8 154.813 285.8C167.234 285.8 177.347 295.922 177.347 308.353C177.347 320.787 167.234 330.906 154.813 330.906Z" fill="black"/>
</g>
</g>
<defs>
<clipPath id="clip0_21_23">
<rect width="307.2" height="307.2" fill="white" transform="translate(102 102)"/>
</clipPath>
</defs>
</svg>
