<svg width="512" height="512" viewBox="0 0 512 512" fill="none" xmlns="http://www.w3.org/2000/svg">
<rect width="512" height="512" fill="url(#paint0_radial_38_140)"/>
<path d="M249.6 358.4C238.933 358.4 229.867 354.667 222.4 347.2C214.933 339.733 211.2 330.667 211.2 320H236.8C236.8 323.627 238.029 326.669 240.486 329.126C242.944 331.584 245.982 332.809 249.6 332.8C253.218 332.791 256.26 331.563 258.726 329.114C261.193 326.665 262.417 323.627 262.4 320C262.383 316.373 261.154 313.335 258.714 310.886C256.273 308.437 253.235 307.209 249.6 307.2H128V281.6H249.6C260.267 281.6 269.333 285.333 276.8 292.8C284.267 300.267 288 309.333 288 320C288 330.667 284.267 339.733 276.8 347.2C269.333 354.667 260.267 358.4 249.6 358.4ZM128 230.4V204.8H300.8C306.347 204.8 310.933 202.987 314.56 199.36C318.187 195.733 320 191.147 320 185.6C320 180.053 318.187 175.467 314.56 171.84C310.933 168.213 306.347 166.4 300.8 166.4C295.253 166.4 290.667 168.213 287.04 171.84C283.413 175.467 281.6 180.053 281.6 185.6H256C256 173.013 260.322 162.398 268.966 153.754C277.611 145.109 288.222 140.791 300.8 140.8C313.378 140.809 323.994 145.131 332.646 153.766C341.299 162.402 345.617 173.013 345.6 185.6C345.583 198.187 341.265 208.802 332.646 217.446C324.028 226.091 313.412 230.409 300.8 230.4H128ZM339.2 332.8V307.2C344.747 307.2 349.333 305.387 352.96 301.76C356.587 298.133 358.4 293.547 358.4 288C358.4 282.453 356.587 277.867 352.96 274.24C349.333 270.613 344.747 268.8 339.2 268.8H128V243.2H339.2C351.787 243.2 362.402 247.522 371.046 256.166C379.691 264.811 384.009 275.422 384 288C383.991 300.578 379.674 311.194 371.046 319.846C362.419 328.499 351.804 332.817 339.2 332.8Z" fill="black"/>
<defs>
<radialGradient id="paint0_radial_38_140" cx="0" cy="0" r="1" gradientUnits="userSpaceOnUse" gradientTransform="translate(256 256) rotate(90) scale(256)">
<stop stop-color="#FFF59D"/>
<stop offset="1" stop-color="#FFD700"/>
</radialGradient>
</defs>
</svg>
