<svg width="512" height="512" viewBox="0 0 512 512" fill="none" xmlns="http://www.w3.org/2000/svg">
<rect width="512" height="512" fill="url(#paint0_radial_38_132)"/>
<path d="M140.8 358.4H371.2C373.452 358.401 375.665 357.807 377.614 356.679C379.564 355.551 381.181 353.929 382.303 351.976C383.425 350.023 384.011 347.809 384.004 345.557C383.996 343.304 383.394 341.094 382.259 339.149L292.659 185.549C288.064 177.677 275.136 177.702 270.528 185.549L228.685 257.28L215.629 236.39C214.477 234.558 212.88 233.047 210.986 232C209.093 230.952 206.964 230.402 204.8 230.4C202.631 230.402 200.486 230.955 198.589 232.008C196.693 233.06 195.095 234.577 193.946 236.416L129.946 338.816C128.735 340.754 128.064 342.98 128.004 345.264C127.944 347.548 128.497 349.807 129.605 351.805C130.712 353.803 132.335 355.469 134.303 356.629C136.272 357.788 138.515 358.4 140.8 358.4ZM281.6 217.408L348.915 332.8H275.904L244.083 281.766L281.6 217.408ZM204.813 267.328L245.722 332.8H163.904L204.813 267.328ZM179.2 204.8C200.371 204.8 217.6 187.571 217.6 166.4C217.6 145.229 200.371 128 179.2 128C158.029 128 140.8 145.229 140.8 166.4C140.8 187.571 158.029 204.8 179.2 204.8ZM179.2 153.6C182.595 153.6 185.85 154.949 188.251 157.349C190.651 159.75 192 163.005 192 166.4C192 169.795 190.651 173.05 188.251 175.451C185.85 177.851 182.595 179.2 179.2 179.2C175.805 179.2 172.549 177.851 170.149 175.451C167.749 173.05 166.4 169.795 166.4 166.4C166.4 163.005 167.749 159.75 170.149 157.349C172.549 154.949 175.805 153.6 179.2 153.6Z" fill="black"/>
<defs>
<radialGradient id="paint0_radial_38_132" cx="0" cy="0" r="1" gradientUnits="userSpaceOnUse" gradientTransform="translate(256 256) rotate(90) scale(256)">
<stop stop-color="#81C784"/>
<stop offset="1" stop-color="#4CAF50"/>
</radialGradient>
</defs>
</svg>
