<svg width="512" height="512" viewBox="0 0 512 512" fill="none" xmlns="http://www.w3.org/2000/svg">
<rect width="512" height="512" fill="url(#paint0_radial_40_155)"/>
<path fill-rule="evenodd" clip-rule="evenodd" d="M159.142 163.494C147.93 186.816 140.8 219.52 140.8 256C140.8 292.48 147.93 325.184 159.142 348.506C170.662 372.48 185.101 384 198.4 384C211.699 384 226.125 372.48 237.658 348.506C248.87 325.184 256 292.48 256 256C256 219.52 248.87 186.816 237.658 163.494C226.138 139.52 211.699 128 198.4 128C185.101 128 170.675 139.52 159.142 163.494ZM176.806 256C176.806 300.646 186.47 336.845 198.4 336.845C209.408 336.845 218.496 305.984 219.827 266.112H205.606C199.642 266.112 194.803 261.581 194.803 256C194.803 250.419 199.642 245.888 205.594 245.888H219.827C218.509 206.016 209.421 175.168 198.4 175.168C186.47 175.168 176.806 211.366 176.806 256.013" fill="black"/>
<path opacity="0.5" d="M237.658 348.506C226.138 372.48 211.699 384 198.4 384H311.962C344.678 384 371.2 326.694 371.2 256C371.2 185.306 344.678 128 311.962 128H198.4C211.699 128 226.125 139.52 237.658 163.494C248.87 186.816 256 219.52 256 256C256 292.48 248.87 325.184 237.658 348.506Z" fill="black"/>
<defs>
<radialGradient id="paint0_radial_40_155" cx="0" cy="0" r="1" gradientUnits="userSpaceOnUse" gradientTransform="translate(256 256) rotate(90) scale(256)">
<stop stop-color="#EF9A9A"/>
<stop offset="1" stop-color="#F44336"/>
</radialGradient>
</defs>
</svg>
