<svg width="512" height="512" viewBox="0 0 512 512" fill="none" xmlns="http://www.w3.org/2000/svg">
<rect width="512" height="512" fill="url(#paint0_radial_38_131)"/>
<path d="M128 332.8V307.2C136.107 307.2 142.135 305.067 146.086 300.8C150.037 296.533 158.302 294.4 170.88 294.4C183.458 294.4 191.727 296.533 195.686 300.8C199.646 305.067 205.457 307.2 213.12 307.2C221.227 307.2 227.255 305.067 231.206 300.8C235.157 296.533 243.422 294.4 256 294.4C268.16 294.4 276.429 296.533 280.806 300.8C285.184 305.067 291.209 307.2 298.88 307.2C306.987 307.2 312.909 305.067 316.646 300.8C320.384 296.533 328.542 294.4 341.12 294.4C353.698 294.4 361.967 296.533 365.926 300.8C369.886 305.067 375.91 307.2 384 307.2V332.8C371.84 332.8 363.575 330.667 359.206 326.4C354.837 322.133 348.809 320 341.12 320C333.431 320 327.62 322.133 323.686 326.4C319.753 330.667 311.484 332.8 298.88 332.8C286.72 332.8 278.455 330.667 274.086 326.4C269.717 322.133 263.689 320 256 320C247.893 320 241.869 322.133 237.926 326.4C233.984 330.667 225.715 332.8 213.12 332.8C200.525 332.8 192.367 330.667 188.646 326.4C184.926 322.133 179.004 320 170.88 320C162.756 320 156.732 322.133 152.806 326.4C148.881 330.667 140.612 332.8 128 332.8ZM128 281.6V256C136.107 256 142.135 253.867 146.086 249.6C150.037 245.333 158.302 243.2 170.88 243.2C183.04 243.2 191.202 245.333 195.366 249.6C199.531 253.867 205.449 256 213.12 256C221.227 256 227.251 253.867 231.194 249.6C235.136 245.333 243.405 243.2 256 243.2C268.16 243.2 276.373 245.333 280.64 249.6C284.907 253.867 290.773 256 298.24 256C306.347 256 312.371 253.867 316.314 249.6C320.256 245.333 328.525 243.2 341.12 243.2C353.28 243.2 361.549 245.333 365.926 249.6C370.304 253.867 376.329 256 384 256V281.6C371.413 281.6 363.038 279.467 358.874 275.2C354.709 270.933 348.791 268.8 341.12 268.8C333.449 268.8 327.637 270.933 323.686 275.2C319.735 279.467 311.467 281.6 298.88 281.6C286.72 281.6 278.455 279.467 274.086 275.2C269.717 270.933 263.689 268.8 256 268.8C247.893 268.8 241.971 270.933 238.234 275.2C234.496 279.467 226.338 281.6 213.76 281.6C201.182 281.6 192.811 279.467 188.646 275.2C184.482 270.933 178.56 268.8 170.88 268.8C163.2 268.8 157.175 270.933 152.806 275.2C148.437 279.467 140.169 281.6 128 281.6ZM128 230.4V204.8C136.107 204.8 142.135 202.667 146.086 198.4C150.037 194.133 158.302 192 170.88 192C183.04 192 191.202 194.133 195.366 198.4C199.531 202.667 205.449 204.8 213.12 204.8C221.227 204.8 227.251 202.667 231.194 198.4C235.136 194.133 243.405 192 256 192C268.16 192 276.373 194.133 280.64 198.4C284.907 202.667 290.773 204.8 298.24 204.8C306.347 204.8 312.371 202.667 316.314 198.4C320.256 194.133 328.525 192 341.12 192C353.28 192 361.549 194.133 365.926 198.4C370.304 202.667 376.329 204.8 384 204.8V230.4C371.413 230.4 363.038 228.267 358.874 224C354.709 219.733 348.791 217.6 341.12 217.6C333.449 217.6 327.637 219.733 323.686 224C319.735 228.267 311.467 230.4 298.88 230.4C286.72 230.4 278.455 228.267 274.086 224C269.717 219.733 263.689 217.6 256 217.6C247.893 217.6 241.971 219.733 238.234 224C234.496 228.267 226.338 230.4 213.76 230.4C201.182 230.4 192.811 228.267 188.646 224C184.482 219.733 178.56 217.6 170.88 217.6C163.2 217.6 157.175 219.733 152.806 224C148.437 228.267 140.169 230.4 128 230.4Z" fill="black"/>
<defs>
<radialGradient id="paint0_radial_38_131" cx="0" cy="0" r="1" gradientUnits="userSpaceOnUse" gradientTransform="translate(256 256) rotate(90) scale(256)">
<stop stop-color="#64B5F6"/>
<stop offset="1" stop-color="#2196F3"/>
</radialGradient>
</defs>
</svg>
