<svg width="512" height="512" viewBox="0 0 512 512" fill="none" xmlns="http://www.w3.org/2000/svg">
<rect width="512" height="512" fill="url(#paint0_radial_38_134)"/>
<path d="M371.2 284.8L360.563 276.365C348.454 266.765 342.4 261.965 342.4 256C342.4 250.035 348.454 245.235 360.563 235.635L371.2 227.2M140.8 227.2L151.437 235.635C163.546 245.235 169.6 250.035 169.6 256C169.6 261.965 163.546 266.765 151.437 276.365L140.8 284.8M288.922 371.2L290.918 357.645C293.197 342.221 294.336 334.515 299.546 331.507C304.755 328.486 311.987 331.366 326.477 337.101L339.2 342.144M223.078 140.8L221.082 154.355C218.803 169.779 217.664 177.485 212.454 180.493C207.245 183.514 200.013 180.634 185.523 174.899L172.8 169.856M166.4 342.17L180.096 337.114C195.686 331.379 203.482 328.512 209.088 331.507C214.694 334.502 215.91 342.234 218.355 357.645L220.506 371.2M345.6 169.83L331.904 174.874C316.314 180.634 308.506 183.488 302.912 180.493C297.318 177.498 296.09 169.766 293.645 154.355L291.494 140.8M345.6 256H166.4M300.8 332.8L211.2 179.2M300.8 179.2L211.2 332.8" stroke="black" stroke-width="20" stroke-linecap="round" stroke-linejoin="round"/>
<defs>
<radialGradient id="paint0_radial_38_134" cx="0" cy="0" r="1" gradientUnits="userSpaceOnUse" gradientTransform="translate(256 256) rotate(90) scale(256)">
<stop stop-color="#E3F2FD"/>
<stop offset="1" stop-color="#BBDEFB"/>
</radialGradient>
</defs>
</svg>
