<svg width="512" height="512" viewBox="0 0 512 512" fill="none" xmlns="http://www.w3.org/2000/svg">
<circle cx="256" cy="256" r="256" fill="#64B5F6"/>
<path d="M209.533 181.565C213.122 181.569 216.677 180.865 219.994 179.493C223.311 178.122 226.325 176.11 228.864 173.573C231.403 171.037 233.418 168.024 234.792 164.708C236.166 161.393 236.874 157.839 236.874 154.249C236.873 150.662 236.165 147.111 234.79 143.798C233.414 140.485 231.399 137.475 228.86 134.942C226.32 132.409 223.306 130.401 219.99 129.034C216.673 127.667 213.12 126.968 209.533 126.976C205.946 126.97 202.394 127.671 199.078 129.039C195.762 130.407 192.749 132.414 190.209 134.947C187.67 137.48 185.654 140.488 184.277 143.8C182.901 147.112 182.19 150.663 182.186 154.249C182.193 161.497 185.077 168.446 190.205 173.568C195.333 178.691 202.285 181.567 209.533 181.565ZM108.544 330.754C114.688 330.754 121.133 329.28 126.65 326.803C132.52 324.085 138.909 322.668 145.377 322.65C151.835 322.664 158.212 324.081 164.067 326.803C169.799 329.369 176.005 330.702 182.284 330.717C188.543 330.711 194.729 329.377 200.434 326.803C206.293 324.068 212.682 322.65 219.148 322.65C225.609 322.671 231.988 324.088 237.851 326.803C243.555 329.377 249.741 330.711 256 330.717C262.433 330.717 268.657 329.28 274.143 326.803C280.019 324.082 286.414 322.665 292.889 322.65C299.536 322.65 305.895 324.186 311.56 326.803C317.284 329.366 323.482 330.699 329.753 330.717C336.204 330.717 342.379 329.28 347.933 326.803C353.371 324.271 359.265 322.867 365.261 322.674C371.257 322.482 377.229 323.506 382.818 325.685C391.259 316.548 395.956 304.572 395.979 292.133C395.979 264.645 373.67 242.391 346.151 242.391L340.566 242.987C334.44 267.79 309.576 268.835 309.576 268.835L195.789 268.804L186.278 263.219L209.213 224.819L234.324 239.294C249.358 249.02 257.186 235.387 257.186 235.387L282.364 194.431C293.306 176.638 270.094 162.372 259.219 180.232L241.592 208.937L199.703 185.811C170.672 169.658 158.372 196.416 158.372 196.416L125.471 252.645C119.874 264.331 124.832 269.351 124.832 269.351L108.544 269.326V330.754ZM403.456 385.024C397.21 385.015 391.037 383.683 385.344 381.116C379.468 378.397 373.073 376.982 366.598 376.969C360.148 376.974 353.778 378.39 347.933 381.116C342.215 383.683 336.02 385.015 329.753 385.024C323.482 385.008 317.285 383.676 311.56 381.116C305.71 378.398 299.339 376.983 292.889 376.969C286.414 376.982 280.019 378.397 274.143 381.116C268.44 383.687 262.256 385.019 256 385.024C249.742 385.02 243.556 383.688 237.851 381.116C231.988 378.403 225.608 376.989 219.148 376.969C212.684 376.968 206.298 378.384 200.44 381.116C194.735 383.688 188.549 385.02 182.29 385.024C176.012 385.011 169.805 383.68 164.073 381.116C158.225 378.388 151.85 376.973 145.396 376.969C138.936 376.989 132.556 378.403 126.693 381.116C120.988 383.688 114.802 385.02 108.544 385.024V357.886C114.805 357.87 120.991 356.526 126.693 353.942C132.556 351.228 138.936 349.814 145.396 349.794C152.044 349.794 158.446 351.33 164.073 353.942C169.803 356.518 176.009 357.861 182.29 357.886C188.551 357.87 194.737 356.526 200.44 353.942C206.304 351.228 212.686 349.813 219.148 349.794C225.79 349.794 232.149 351.33 237.851 353.942C243.553 356.526 249.739 357.87 256 357.886C262.259 357.869 268.443 356.525 274.143 353.942C280.019 351.222 286.414 349.808 292.889 349.794C299.536 349.794 305.895 351.33 311.56 353.942C317.282 356.514 323.479 357.858 329.753 357.886C336.204 357.886 342.379 356.424 347.933 353.942C353.781 351.224 360.15 349.809 366.598 349.794C373.277 349.794 379.648 351.33 385.344 353.942C390.836 356.418 397.017 357.886 403.456 357.886V385.024Z" fill="black"/>
</svg>
