<svg width="512" height="512" viewBox="0 0 512 512" fill="none" xmlns="http://www.w3.org/2000/svg">
<circle cx="256" cy="256" r="256" fill="#64B5F6"/>
<g clip-path="url(#clip0_40_149)">
<mask id="mask0_40_149" style="mask-type:luminance" maskUnits="userSpaceOnUse" x="102" y="341" width="308" height="36">
<path d="M102 341.2H409.2V376.225H102V341.2Z" fill="white"/>
</mask>
<g mask="url(#mask0_40_149)">
<path d="M360.8 341.766C354.303 349.397 344.691 353.941 334.478 353.941C324.287 353.941 314.675 349.397 308.2 341.766C301.703 349.397 292.091 353.941 281.878 353.941C271.687 353.941 262.078 349.397 255.6 341.766C249.103 349.397 239.491 353.941 229.278 353.941C219.091 353.941 209.478 349.397 203 341.766C196.503 349.397 186.891 353.941 176.678 353.941C166.491 353.941 156.878 349.397 150.4 341.766C143.903 349.397 134.291 353.941 124.078 353.941C115.912 353.941 108.125 351.028 102.006 345.947V364.037C106.759 371.569 115.119 376.212 124.078 376.212C133.422 376.212 142.106 371.172 146.747 363.069C147.5 361.762 148.884 360.95 150.4 360.95C151.162 360.95 151.884 361.156 152.512 361.519C153.147 361.884 153.684 362.409 154.053 363.069C158.687 371.172 167.359 376.212 176.678 376.212C186.022 376.212 194.706 371.172 199.347 363.069C200.1 361.762 201.484 360.95 203 360.95C203.762 360.95 204.484 361.156 205.112 361.519C205.747 361.884 206.284 362.409 206.653 363.069C211.287 371.172 219.959 376.212 229.278 376.212C238.622 376.212 247.306 371.172 251.947 363.069C252.7 361.762 254.084 360.95 255.6 360.95C256.362 360.95 257.084 361.156 257.712 361.522C258.347 361.884 258.884 362.409 259.253 363.069C263.887 371.175 272.559 376.212 281.878 376.212C291.222 376.212 299.906 371.175 304.547 363.069C305.3 361.762 306.684 360.95 308.2 360.95C308.962 360.95 309.684 361.156 310.312 361.522C310.944 361.884 311.484 362.409 311.853 363.069C316.487 371.175 325.159 376.212 334.478 376.212C343.822 376.212 352.506 371.175 357.144 363.069C357.9 361.762 359.284 360.95 360.8 360.95C362.309 360.95 363.706 361.762 364.453 363.069C369.087 371.175 377.759 376.212 387.078 376.212C396.069 376.212 404.441 371.544 409.187 363.966V345.9C403.075 351.009 395.269 353.941 387.078 353.941C376.887 353.934 367.281 349.391 360.8 341.766Z" fill="black"/>
</g>
<path d="M387.084 323.447C376.894 323.447 367.281 318.9 360.806 311.269C354.309 318.9 344.697 323.447 334.484 323.447C324.294 323.447 314.681 318.9 308.206 311.269C301.709 318.9 292.097 323.447 281.884 323.447C271.697 323.447 262.084 318.9 255.606 311.269C253.769 313.428 251.691 315.334 249.412 316.962C249.316 317.025 249.225 317.097 249.137 317.153C243.416 321.178 236.497 323.447 229.284 323.447C219.097 323.447 209.484 318.9 203.006 311.269C196.509 318.9 186.897 323.447 176.684 323.447C166.497 323.447 156.884 318.9 150.406 311.269C143.912 318.9 134.3 323.447 124.084 323.447C115.919 323.447 108.131 320.534 102.012 315.45V333.328C106.759 340.875 115.119 345.516 124.084 345.516C133.428 345.516 142.112 340.478 146.753 332.375C147.506 331.069 148.891 330.256 150.406 330.256C151.169 330.256 151.891 330.462 152.519 330.825C153.153 331.191 153.691 331.716 154.062 332.375C158.694 340.478 167.366 345.516 176.684 345.516C186.028 345.516 194.712 340.478 199.353 332.375C200.106 331.069 201.491 330.256 203.006 330.256C203.769 330.256 204.491 330.462 205.119 330.825C205.753 331.191 206.291 331.716 206.659 332.375C211.294 340.478 219.966 345.516 229.284 345.516C238.628 345.516 247.312 340.478 251.953 332.375C252.706 331.069 254.091 330.256 255.606 330.256C256.369 330.256 257.091 330.462 257.719 330.825C258.353 331.191 258.891 331.716 259.259 332.375C263.894 340.478 272.566 345.516 281.884 345.516C291.228 345.516 299.912 340.478 304.553 332.375C305.306 331.069 306.691 330.256 308.206 330.256C308.969 330.256 309.691 330.462 310.319 330.825C310.953 331.191 311.491 331.716 311.859 332.375C316.494 340.478 325.166 345.516 334.484 345.516C343.828 345.516 352.512 340.478 357.153 332.375C357.906 331.069 359.291 330.256 360.806 330.256C361.569 330.256 362.291 330.462 362.919 330.825C363.55 331.191 364.091 331.716 364.459 332.375C369.094 340.478 377.766 345.519 387.084 345.519C396.069 345.519 404.447 340.85 409.194 333.272V315.412C403.084 320.519 395.269 323.447 387.084 323.447Z" fill="black"/>
<path d="M124.078 315.028C133.422 315.028 142.106 309.991 146.747 301.887C147.5 300.581 148.884 299.766 150.4 299.766C151.162 299.766 151.884 299.972 152.512 300.337C153.147 300.703 153.684 301.234 154.053 301.887C158.687 309.991 167.359 315.028 176.678 315.028C186.022 315.028 194.706 309.991 199.347 301.887C200.1 300.581 201.484 299.769 203 299.769C203.762 299.769 204.484 299.972 205.112 300.337C205.747 300.703 206.284 301.234 206.653 301.887C211.287 309.991 219.959 315.028 229.278 315.028C233.778 315.028 238.134 313.856 241.944 311.737L230.806 276.337L203.05 268.562C201.625 268.156 200.509 267.031 200.128 265.597L191.872 234.781L176.037 250.625V276.491C176.037 278.816 174.15 280.691 171.828 280.691C169.497 280.691 167.616 278.816 167.616 276.491V248.878C167.616 247.756 168.05 246.694 168.844 245.9L183.884 230.862H154.606C152.756 230.862 151.116 229.653 150.578 227.881L134.125 174.072H102.006V192.541L122.997 213.534C123.784 214.322 124.225 215.391 124.225 216.512V244.122C124.225 246.444 122.337 248.334 120.016 248.334C117.691 248.334 115.803 246.444 115.803 244.122V218.253L102.006 204.447V302.841C106.753 310.387 115.112 315.028 124.078 315.028Z" fill="black"/>
<path d="M242.006 206.591V215.372C242.006 217.697 243.894 219.584 246.219 219.584C248.541 219.584 250.428 217.697 250.428 215.372V206.591C250.428 204.266 248.541 202.378 246.219 202.378C243.887 202.384 242.006 204.266 242.006 206.591Z" fill="black"/>
<path d="M208.159 181.522H216.937C219.262 181.522 221.15 179.634 221.15 177.309C221.15 174.987 219.262 173.1 216.937 173.1H208.159C205.834 173.1 203.947 174.987 203.947 177.309C203.947 179.634 205.834 181.522 208.159 181.522Z" fill="black"/>
<path d="M320.872 250.631C320.187 252.853 321.434 255.215 323.65 255.9C323.772 255.937 335.987 259.828 339.022 271.165C339.519 273.003 341.184 274.278 343.091 274.278C345 274.278 346.662 272.997 347.156 271.165C350.156 259.944 362.419 255.931 362.528 255.9C364.747 255.215 365.991 252.853 365.306 250.631C364.619 248.409 362.266 247.169 360.044 247.853C359.506 248.019 349.428 251.24 343.097 260.278C336.762 251.24 326.681 248.025 326.15 247.853C323.919 247.169 321.556 248.409 320.872 250.631Z" fill="black"/>
<path d="M263.937 195.037C262.294 196.681 262.294 199.35 263.937 200.99L270.147 207.197C270.966 208.019 272.047 208.434 273.122 208.434C274.203 208.434 275.278 208.019 276.106 207.197C277.75 205.553 277.75 202.884 276.106 201.244L269.897 195.037C268.247 193.397 265.578 193.397 263.937 195.037Z" fill="black"/>
<path d="M222.531 159.584C223.359 160.412 224.434 160.822 225.509 160.822C226.591 160.822 227.666 160.412 228.491 159.584C230.134 157.941 230.134 155.272 228.491 153.631L222.281 147.422C220.637 145.778 217.969 145.778 216.331 147.422C214.687 149.069 214.687 151.737 216.331 153.375L222.531 159.584Z" fill="black"/>
<mask id="mask1_40_149" style="mask-type:luminance" maskUnits="userSpaceOnUse" x="242" y="135" width="9" height="18">
<path d="M242 135.025H250.8V152.4H242V135.025Z" fill="white"/>
</mask>
<g mask="url(#mask1_40_149)">
<path d="M246.212 152.237C248.534 152.237 250.422 150.35 250.422 148.025V139.25C250.422 136.925 248.534 135.037 246.212 135.037C243.887 135.037 242 136.925 242 139.25V148.031C242.006 150.356 243.887 152.237 246.212 152.237Z" fill="black"/>
</g>
<path d="M266.909 160.816C267.991 160.816 269.066 160.406 269.891 159.578L276.1 153.369C277.744 151.725 277.744 149.056 276.1 147.416C274.453 145.772 271.784 145.772 270.147 147.416L263.937 153.625C262.294 155.272 262.294 157.941 263.937 159.578C264.753 160.412 265.834 160.816 266.909 160.816Z" fill="black"/>
<path d="M297.166 209.228C297.287 209.266 309.544 213.272 312.553 224.494C313.037 226.337 314.709 227.612 316.616 227.612C318.522 227.612 320.187 226.331 320.678 224.494C323.687 213.278 335.95 209.266 336.053 209.228C338.272 208.544 339.512 206.187 338.834 203.966C338.15 201.744 335.791 200.503 333.569 201.187C333.037 201.353 322.95 204.575 316.622 213.612C310.287 204.575 300.212 201.359 299.675 201.187C297.462 200.503 295.119 201.737 294.422 203.953C293.725 206.169 294.959 208.531 297.166 209.228Z" fill="black"/>
<path d="M271.278 177.309C271.278 179.634 273.169 181.522 275.491 181.522H284.272C286.594 181.522 288.481 179.634 288.481 177.309C288.481 174.987 286.594 173.1 284.272 173.1H275.491C273.162 173.1 271.278 174.987 271.278 177.309Z" fill="black"/>
<path d="M263.581 174.706C263.666 175.275 263.722 175.847 263.753 176.422C263.781 176.997 263.784 177.572 263.756 178.147C263.728 178.722 263.675 179.294 263.591 179.862C263.506 180.431 263.397 180.997 263.256 181.553C263.119 182.112 262.953 182.662 262.762 183.203C262.569 183.747 262.35 184.278 262.106 184.797C261.859 185.319 261.591 185.825 261.297 186.319C261 186.815 260.681 187.294 260.341 187.756C260 188.219 259.634 188.662 259.25 189.09C258.866 189.519 258.459 189.925 258.034 190.312C257.609 190.7 257.166 191.065 256.703 191.409C256.244 191.753 255.766 192.072 255.275 192.369C254.781 192.665 254.275 192.937 253.756 193.184C253.234 193.431 252.706 193.653 252.166 193.847C251.622 194.044 251.075 194.209 250.516 194.35C249.959 194.494 249.397 194.606 248.828 194.69C248.259 194.778 247.687 194.834 247.112 194.862C246.537 194.894 245.962 194.894 245.387 194.869C244.812 194.84 244.244 194.784 243.672 194.703C243.103 194.619 242.541 194.509 241.981 194.369C241.425 194.231 240.875 194.065 240.331 193.872C239.791 193.678 239.259 193.459 238.737 193.215C238.219 192.972 237.709 192.7 237.216 192.406C236.722 192.112 236.244 191.794 235.781 191.453C235.319 191.109 234.875 190.747 234.447 190.362C234.019 189.975 233.612 189.569 233.225 189.144C232.837 188.719 232.475 188.275 232.131 187.815C231.787 187.353 231.466 186.875 231.169 186.384C230.872 185.89 230.6 185.384 230.353 184.865C230.106 184.344 229.887 183.815 229.691 183.272C229.497 182.731 229.328 182.181 229.187 181.625C229.047 181.065 228.934 180.503 228.847 179.934C228.762 179.365 228.703 178.794 228.675 178.219C228.647 177.644 228.644 177.072 228.672 176.497C228.7 175.922 228.753 175.35 228.837 174.781C228.919 174.209 229.031 173.647 229.169 173.087C229.309 172.531 229.475 171.981 229.666 171.437C229.859 170.897 230.078 170.365 230.322 169.844C230.569 169.325 230.837 168.815 231.131 168.322C231.425 167.828 231.744 167.35 232.087 166.887C232.428 166.425 232.791 165.978 233.178 165.553C233.562 165.125 233.969 164.719 234.394 164.331C234.819 163.944 235.262 163.578 235.722 163.234C236.184 162.89 236.662 162.569 237.153 162.275C237.647 161.978 238.153 161.706 238.672 161.456C239.191 161.209 239.722 160.99 240.262 160.794C240.803 160.6 241.353 160.431 241.912 160.29C242.469 160.15 243.031 160.037 243.6 159.95C244.169 159.865 244.741 159.809 245.316 159.778C245.891 159.75 246.466 159.747 247.037 159.775C247.612 159.803 248.184 159.856 248.753 159.94C249.322 160.025 249.887 160.134 250.444 160.272C251.003 160.412 251.553 160.578 252.097 160.769C252.637 160.962 253.169 161.181 253.687 161.425C254.209 161.672 254.716 161.94 255.209 162.234C255.703 162.531 256.184 162.85 256.647 163.19C257.109 163.531 257.553 163.897 257.981 164.281C258.406 164.665 258.816 165.072 259.2 165.497C259.587 165.922 259.953 166.365 260.297 166.828C260.641 167.29 260.962 167.765 261.256 168.259C261.553 168.753 261.825 169.259 262.072 169.778C262.322 170.297 262.541 170.828 262.737 171.369C262.931 171.909 263.1 172.459 263.241 173.019C263.381 173.575 263.494 174.137 263.581 174.706Z" fill="black"/>
<path d="M222.531 195.037L216.325 201.244C214.681 202.89 214.681 205.559 216.325 207.197C217.15 208.019 218.225 208.434 219.3 208.434C220.381 208.434 221.456 208.019 222.281 207.197L228.491 200.99C230.134 199.344 230.134 196.675 228.491 195.037C226.847 193.397 224.178 193.397 222.531 195.037Z" fill="black"/>
</g>
<defs>
<clipPath id="clip0_40_149">
<rect width="307.2" height="307.2" fill="white" transform="translate(102 102)"/>
</clipPath>
</defs>
</svg>
