<svg width="512" height="512" viewBox="0 0 512 512" fill="none" xmlns="http://www.w3.org/2000/svg">
<circle cx="256" cy="256" r="256" fill="#64B5F6"/>
<path d="M128 396.8V371.2H140.8C147.627 371.2 154.24 370.133 160.64 368C167.04 365.867 173.227 362.667 179.2 358.4C185.173 362.667 191.36 365.867 197.76 368C204.16 370.133 210.773 371.2 217.6 371.2C224.427 371.2 231.095 370.133 237.606 368C244.117 365.867 250.249 362.667 256 358.4C261.973 362.667 268.16 365.867 274.56 368C280.96 370.133 287.573 371.2 294.4 371.2C301.227 371.2 307.895 370.133 314.406 368C320.917 365.867 327.049 362.667 332.8 358.4C338.56 362.667 344.695 365.867 351.206 368C357.717 370.133 364.382 371.2 371.2 371.2H384V396.8H371.2C364.587 396.8 358.08 396.002 351.68 394.406C345.28 392.811 338.987 390.409 332.8 387.2C326.613 390.4 320.32 392.802 313.92 394.406C307.52 396.011 301.013 396.809 294.4 396.8C287.787 396.791 281.28 395.994 274.88 394.406C268.48 392.819 262.187 390.417 256 387.2C249.813 390.4 243.52 392.802 237.12 394.406C230.72 396.011 224.213 396.809 217.6 396.8C210.987 396.791 204.48 395.994 198.08 394.406C191.68 392.819 185.387 390.417 179.2 387.2C173.013 390.4 166.72 392.802 160.32 394.406C153.92 396.011 147.413 396.809 140.8 396.8H128ZM217.6 345.6C209.92 345.6 202.773 343.787 196.16 340.16C189.547 336.533 183.893 331.947 179.2 326.4C175.573 330.24 171.575 333.709 167.206 336.806C162.837 339.904 157.982 342.302 152.64 344C143.893 341.653 135.04 338.88 126.08 335.68C117.12 332.48 109.227 329.387 102.4 326.4C113.92 321.493 128 316.48 144.64 311.36C161.28 306.24 177.6 302.4 193.6 299.84L210.88 246.4C213.227 239.147 217.655 234.347 224.166 232C230.677 229.653 236.809 229.973 242.56 232.96L275.2 249.6L311.36 230.4L332.48 183.04L326.08 166.08L343.04 128L384 146.24L367.04 184.32L350.08 190.72L302.72 297.6C322.56 299.947 342.451 304 362.394 309.76C382.336 315.52 398.072 321.067 409.6 326.4C403.413 329.173 395.571 332.215 386.074 335.526C376.576 338.837 367.672 341.662 359.36 344C354.027 342.507 349.175 340.215 344.806 337.126C340.437 334.037 336.435 330.462 332.8 326.4C328.107 331.947 322.453 336.533 315.84 340.16C309.227 343.787 302.08 345.6 294.4 345.6C286.72 345.6 279.573 343.787 272.96 340.16C266.347 336.533 260.693 331.947 256 326.4C251.307 331.947 245.653 336.533 239.04 340.16C232.427 343.787 225.28 345.6 217.6 345.6ZM282.56 295.36L294.72 268.16L275.2 278.4L252.8 266.88L243.84 294.4H256C260.48 294.4 264.96 294.455 269.44 294.566C273.92 294.677 278.293 294.942 282.56 295.36ZM256 224C248.96 224 242.936 221.495 237.926 216.486C232.917 211.477 230.409 205.449 230.4 198.4C230.391 191.351 232.9 185.327 237.926 180.326C242.953 175.326 248.977 172.817 256 172.8C263.023 172.783 269.052 175.292 274.086 180.326C279.121 185.361 281.626 191.386 281.6 198.4C281.574 205.414 279.07 211.443 274.086 216.486C269.103 221.53 263.074 224.034 256 224Z" fill="black"/>
</svg>
