<svg width="512" height="512" viewBox="0 0 512 512" fill="none" xmlns="http://www.w3.org/2000/svg">
<circle cx="256" cy="256" r="256" fill="#64B5F6"/>
<path d="M366.331 299.766C368.003 299.475 369.609 299.122 371.278 298.769C375.003 298 378.084 295.047 378.791 291.034C379.691 285.769 376.222 280.794 370.956 279.831C351.978 276.459 333.034 274.984 314.056 274.022C311.744 273.925 309.369 273.828 307.025 273.731L304.906 300.181L306.125 301.756C306.575 301.594 307.025 301.337 307.475 301.144C325.841 291.931 347.644 291.45 366.331 299.766Z" fill="black"/>
<path d="M231.469 314.659C220.681 320.116 207.675 320.116 196.888 314.659C181.794 307.084 163.747 307.084 148.656 314.659C137.803 320.116 124.863 320.116 114.009 314.659C110.284 312.797 105.725 314.306 103.863 318.028C102 321.753 103.509 326.313 107.234 328.172C122.325 335.75 140.341 335.75 155.4 328.172C166.253 322.716 179.225 322.716 190.047 328.172C205.138 335.75 223.153 335.75 238.275 328.172C245.438 324.578 253.528 323.325 261.3 324.481L261.813 318.288C262.069 315.3 262.778 312.381 264.028 309.716C253.047 307.884 241.616 309.556 231.469 314.659Z" fill="black"/>
<path d="M407.338 318.028C405.413 314.306 400.884 312.766 397.125 314.659C386.338 320.116 373.331 320.116 362.478 314.659C347.419 307.084 329.406 307.084 314.313 314.659C313.866 314.85 313.416 315.109 312.966 315.269C313.416 317.581 313.575 320.019 313.381 322.428L312.675 331.513C315.566 330.644 318.391 329.553 321.122 328.172C331.975 322.716 344.916 322.716 355.769 328.172C370.859 335.75 388.875 335.75 403.997 328.172C407.691 326.313 409.2 321.784 407.338 318.028Z" fill="black"/>
<mask id="mask0_19_25" style="mask-type:luminance" maskUnits="userSpaceOnUse" x="135" y="145" width="177" height="203">
<path d="M135.6 145.8H311.6V347.319H135.6V145.8Z" fill="white"/>
</mask>
<g mask="url(#mask0_19_25)">
<path d="M294.534 303.263L302.625 201.925C305.772 200.738 308.084 197.784 308.213 194.188C308.341 190.881 306.544 187.994 303.847 186.453L305.675 163.372C307.859 161.606 309.047 160.353 309.241 160.128C312.419 156.663 312.194 151.303 308.728 148.091C305.291 144.881 299.866 145.075 296.622 148.478C296.075 149.056 283.778 161.703 257.509 162.378C256 162.409 246.369 161.766 244.347 161.541C234.841 160.613 227.037 167.384 226.106 176.5C226.075 176.694 226.075 176.853 226.075 177.047L224.212 218.294L215.028 275.272C210.181 275.594 205.362 275.947 200.516 276.397C181.634 277.969 162.687 279.928 143.872 283.425C139.922 284.131 136.712 287.278 136.1 291.388C135.459 295.559 137.675 299.572 141.237 301.338C141.431 301.272 141.656 301.178 141.85 301.081C161.244 291.388 184.3 291.388 203.662 301.081C210.372 304.419 218.016 304.419 224.725 301.081C239.978 293.409 257.606 291.834 273.856 296.297L275.716 273.184C272.828 273.219 269.969 273.281 267.078 273.316L270.291 241.791C270.45 240.316 270.259 238.838 269.712 237.459L261.494 215.597L263.034 196.531L270.547 200.575C271.703 201.219 272.988 201.538 274.303 201.603L291.45 202.181L283.456 302.366L276.969 308.463C274.016 311.256 272.184 315.044 271.863 319.088L270.225 339.441C269.969 342.491 272.25 345.188 275.331 345.409L295.691 347.047C298.741 347.303 301.438 345.025 301.663 341.944L303.3 321.594C303.622 317.547 302.434 313.534 299.959 310.294L294.534 303.263ZM242.419 226.031L245.019 226.288L250.959 242.144L247.716 273.828C243.35 273.956 238.984 274.116 234.647 274.309L242.419 226.031ZM276.938 184.525L266.597 178.972C278.094 177.625 287.15 174.35 293.956 170.916L292.831 185.103L276.938 184.525Z" fill="black"/>
</g>
<path d="M246.691 154.287C257.062 155.281 266.278 147.675 267.272 137.306C268.269 126.937 260.656 117.725 250.284 116.731C239.916 115.734 230.697 123.344 229.703 133.712C228.706 144.078 236.319 153.294 246.691 154.287Z" fill="black"/>
</svg>
