<svg width="512" height="512" viewBox="0 0 512 512" fill="none" xmlns="http://www.w3.org/2000/svg">
<circle cx="256" cy="256" r="256" fill="#64B5F6"/>
<path d="M234.453 151.558L231.123 157.518C228.948 161.929 224.451 163.84 219.308 163.84H211.481C215.972 169.984 223.16 175.016 231.492 175.016C245.119 175.016 256 164.719 256 151.128V151.552H235.614C235.104 151.552 234.594 151.048 234.453 151.558ZM219.308 157.696C221.993 157.696 224.377 156.762 225.47 154.452L228.727 148.627C229.962 145.955 232.573 145.408 235.614 145.408H261.13C257.794 133.12 245.838 121.766 231.694 121.766C214.952 121.766 201.398 134.164 201.398 150.938C201.398 153.616 201.687 157.696 202.412 157.696H219.308ZM303.211 292.864C325.937 292.864 385.301 285.903 401.644 270.279C394.289 247.693 365.296 245.887 338.692 257.389C334.121 259.367 328.038 260.829 321.077 262.132L315.64 241.082C317.831 239.963 319.652 238.234 320.885 236.105C322.118 233.975 322.709 231.535 322.589 229.077C322.527 227.401 322.135 225.753 321.436 224.228C320.736 222.703 319.743 221.331 318.512 220.191C317.282 219.051 315.838 218.164 314.265 217.583C312.691 217.001 311.019 216.735 309.342 216.801L305.349 201.386C307.333 199.914 308.846 197.896 309.703 195.579C310.559 193.261 310.722 190.745 310.172 188.336C309.413 185.013 307.371 182.125 304.491 180.303C301.611 178.481 298.127 177.872 294.799 178.61C294.799 178.61 238.514 179.114 220.862 183.851C203.248 188.588 197.306 218.19 197.306 218.19L181.83 268.288H108.544V292.864H303.211ZM252.615 205.644L296.286 203.844L299.764 217.219C287.955 217.797 266.967 218.884 248.228 219.929L252.615 205.644ZM240.437 245.555L306.326 242.594L311.8 263.563C284.908 267.428 250.04 267.981 233.55 268.048L240.437 245.555ZM363.557 321.182C363.557 321.182 403.456 320.678 403.456 281.737C403.456 280.177 403.302 279.003 403.167 277.559C378.266 295.555 311.726 299.008 303.315 299.008H108.544V329.138C113.256 329.138 118.116 328.045 122.386 326.177C129.456 322.909 137.147 321.207 144.935 321.188C152.615 321.188 160.375 322.927 167.256 326.109C171.821 328.137 176.534 329.144 181.32 329.144C186.18 329.144 190.886 328.137 195.236 326.183C202.309 322.934 209.995 321.234 217.778 321.194C225.513 321.194 233.156 322.873 240.179 326.115C244.597 328.143 249.451 329.15 254.243 329.15C259.023 329.15 263.735 328.143 268.153 326.189C275.199 322.932 282.865 321.23 290.628 321.2C298.449 321.2 306 322.865 313.022 326.121C317.52 328.149 322.368 329.157 327.086 329.157L328.788 329.083L334.594 351.343C332.087 351.773 329.593 352.074 327.012 352.074C320.815 352.085 314.687 350.776 309.035 348.234C303.25 345.525 296.941 344.12 290.554 344.117C283.968 344.117 277.651 345.629 272.073 348.234C266.43 350.767 260.315 352.077 254.129 352.077C247.944 352.077 241.828 350.767 236.186 348.234C230.607 345.629 224.303 344.117 217.704 344.117C211.106 344.117 204.802 345.629 199.223 348.234C193.593 350.759 187.491 352.065 181.32 352.065C175.148 352.065 169.047 350.759 163.416 348.234C157.631 345.525 151.322 344.12 144.935 344.117C138.57 344.13 132.285 345.535 126.521 348.234C120.863 350.754 114.738 352.058 108.544 352.061V378.88C114.921 378.88 121.016 377.51 126.521 375.052C132.284 372.349 138.569 370.94 144.935 370.924C151.527 370.924 157.831 372.447 163.416 375.052C168.854 377.51 175.016 378.88 181.32 378.88C187.491 378.885 193.593 377.58 199.223 375.052C205.007 372.339 211.316 370.93 217.704 370.924C224.309 370.924 230.607 372.447 236.186 375.052C241.623 377.51 247.785 378.88 254.163 378.88C260.54 378.88 266.635 377.51 272.073 375.052C277.856 372.339 284.165 370.93 290.554 370.924C297.153 370.924 303.456 372.447 309.035 375.052C314.472 377.51 320.641 378.88 327.012 378.88C333.184 378.885 339.286 377.58 344.916 375.052C350.703 372.338 357.017 370.928 363.409 370.924C369.996 370.924 375.034 372.447 380.613 375.052C386.05 377.51 391.168 378.88 397.312 378.88V352.061C391.168 352.061 386.05 350.679 380.613 348.221C375.034 345.616 369.363 344.105 362.777 344.105C356.488 344.112 350.28 345.518 344.603 348.221L343.448 348.725L337.949 327.332L340.959 326.177C348.049 322.919 355.754 321.215 363.557 321.182Z" fill="black"/>
</svg>
