<svg width="512" height="512" viewBox="0 0 512 512" fill="none" xmlns="http://www.w3.org/2000/svg">
<circle cx="256" cy="256" r="256" fill="#64B5F6"/>
<path d="M140.8 275.2L243.2 128.384V275.2H140.8ZM262.4 275.2C279.68 227.2 277.376 162.688 262.4 115.2C323.328 134.912 369.92 209.92 370.688 275.2H262.4ZM372.48 321.024C367.232 329.216 361.088 336.256 353.92 342.272C345.6 338.56 338.176 332.8 332.288 326.4C313.216 351.104 274.688 351.104 255.616 326.4C236.8 351.104 198.016 351.104 179.2 326.4C172.8 332.8 165.76 338.56 157.44 342.272C142.848 330.24 131.84 313.088 128 294.4H383.232C381.243 303.839 377.603 312.852 372.48 321.024ZM370.688 396.8C357.12 396.8 344.32 393.6 332.288 387.2C308.736 400 279.168 400 255.616 387.2C232.064 400 202.496 400 179.2 387.2C163.456 396.032 145.408 397.44 128 396.8V371.2C146.048 371.84 163.456 369.92 179.2 358.4C201.472 374.4 233.088 374.4 255.616 358.4C278.272 374.4 309.76 374.4 332.288 358.4C347.776 369.92 365.312 371.84 383.232 371.2V396.8H370.688Z" fill="black"/>
</svg>
