<svg width="512" height="512" viewBox="0 0 512 512" fill="none" xmlns="http://www.w3.org/2000/svg">
<circle cx="256" cy="256" r="256" fill="#64B5F6"/>
<path d="M108.544 133.12L155.343 181.615L173.326 165.247L157.045 133.267L108.544 133.12ZM319.504 268.952C328.346 271.421 337.863 266.346 340.369 257.223C342.796 248.265 337.635 238.846 328.708 236.302L321.784 234.367L312.795 266.942L319.504 268.952ZM314.055 232.272L258.052 216.279C254.366 215.308 250.649 217.557 249.61 221.286L244.376 240.265C243.35 244.001 245.334 247.81 249.094 248.934L305.14 264.78L314.055 232.272ZM322.89 286.222C318.477 281.923 313.063 278.789 307.137 277.105L239.227 257.831L197.509 182.813C195.297 178.93 191.758 175.864 187.187 174.592C178.045 171.981 168.534 177.431 166.033 186.696C164.83 190.942 165.305 195.489 167.361 199.395L219.548 292.194C219.548 292.194 223.824 299.143 234.582 302.737L329.458 329.716L373.461 374.991C374.936 376.558 376.859 377.75 379.138 378.431C385.774 380.299 392.698 376.257 394.621 369.603C395.88 364.902 394.406 359.969 391.082 356.903L322.89 286.222ZM373.541 304.98L383.402 318.054L403.456 295.856L386.511 286.284C388.121 274.254 380.748 262.605 368.957 259.244C355.987 255.576 342.495 263.201 338.895 276.355C335.196 289.583 342.796 303.174 355.766 306.842C361.959 308.63 368.226 307.659 373.541 304.98Z" fill="black"/>
</svg>
