<svg width="512" height="512" viewBox="0 0 512 512" fill="none" xmlns="http://www.w3.org/2000/svg">
<circle cx="256" cy="256" r="256" fill="#64B5F6"/>
<path d="M153.6 192H307.2C310.595 192 313.851 193.348 316.251 195.749C318.651 198.149 320 201.405 320 204.8V262.4C320 270.887 316.629 279.026 310.627 285.027C304.626 291.028 296.487 294.4 288 294.4H281.6C274.81 294.4 268.299 291.703 263.498 286.902C258.697 282.101 256 275.589 256 268.8C256 262.01 253.303 255.499 248.502 250.698C243.701 245.897 237.19 243.2 230.4 243.2C223.61 243.2 217.099 245.897 212.298 250.698C207.497 255.499 204.8 262.01 204.8 268.8C204.8 275.589 202.103 282.101 197.302 286.902C192.501 291.703 185.99 294.4 179.2 294.4H172.8C164.313 294.4 156.174 291.028 150.173 285.027C144.171 279.026 140.8 270.887 140.8 262.4V204.8C140.8 201.405 142.149 198.149 144.549 195.749C146.949 193.348 150.205 192 153.6 192Z" stroke="black" stroke-width="30" stroke-linecap="round" stroke-linejoin="round"/>
<path d="M230.4 320C230.4 326.789 233.097 333.301 237.898 338.102C242.699 342.903 249.21 345.6 256 345.6H300.8C319.471 345.6 337.378 338.183 350.58 324.98C363.783 311.778 371.2 293.871 371.2 275.2V153.6" stroke="black" stroke-width="30" stroke-linecap="round" stroke-linejoin="round"/>
</svg>
