<svg width="512" height="512" viewBox="0 0 512 512" fill="none" xmlns="http://www.w3.org/2000/svg">
<circle cx="256" cy="256" r="256" fill="#BDBDBD"/>
<path d="M345.6 332.8C349.227 332.8 352.269 331.571 354.726 329.113C357.184 326.656 358.409 323.618 358.4 320C358.391 316.382 357.163 313.344 354.714 310.886C352.265 308.429 349.227 307.2 345.6 307.2C341.973 307.2 338.935 308.429 336.486 310.886C334.037 313.344 332.809 316.382 332.8 320C332.791 323.618 334.02 326.66 336.486 329.126C338.953 331.592 341.99 332.817 345.6 332.8ZM345.6 358.4C334.933 358.4 325.867 354.666 318.4 347.2C310.933 339.733 307.2 330.666 307.2 320C307.2 309.333 310.933 300.266 318.4 292.8C325.867 285.333 334.933 281.6 345.6 281.6C356.267 281.6 365.333 285.333 372.8 292.8C380.267 300.266 384 309.333 384 320C384 330.666 380.267 339.733 372.8 347.2C365.333 354.666 356.267 358.4 345.6 358.4ZM166.4 332.8C170.027 332.8 173.069 331.571 175.526 329.113C177.984 326.656 179.209 323.618 179.2 320C179.191 316.382 177.963 313.344 175.514 310.886C173.065 308.429 170.027 307.2 166.4 307.2C162.773 307.2 159.735 308.429 157.286 310.886C154.837 313.344 153.609 316.382 153.6 320C153.591 323.618 154.82 326.66 157.286 329.126C159.753 331.592 162.79 332.817 166.4 332.8ZM166.4 358.4C155.733 358.4 146.667 354.666 139.2 347.2C131.733 339.733 128 330.666 128 320C128 309.333 131.733 300.266 139.2 292.8C146.667 285.333 155.733 281.6 166.4 281.6C174.507 281.6 181.867 283.946 188.48 288.64C195.093 293.333 199.787 299.52 202.56 307.2H270.08C272.427 292.48 278.455 279.731 288.166 268.953C297.877 258.176 309.769 250.658 323.84 246.4L305.92 166.4H256V140.8H305.92C311.893 140.8 317.227 142.613 321.92 146.24C326.613 149.866 329.6 154.666 330.88 160.64L355.2 268.8H345.6C331.52 268.8 319.467 273.813 309.44 283.84C299.413 293.866 294.4 305.92 294.4 320V332.8H202.56C199.787 340.48 195.093 346.666 188.48 351.36C181.867 356.053 174.507 358.4 166.4 358.4Z" fill="black"/>
</svg>
