<svg width="512" height="512" viewBox="0 0 512 512" fill="none" xmlns="http://www.w3.org/2000/svg">
<circle cx="256" cy="256" r="256" fill="#BDBDBD"/>
<path d="M323.2 150.4H188.8C170.983 150.419 153.902 157.505 141.303 170.103C128.705 182.702 121.619 199.783 121.6 217.6V332.8C121.6 337.892 123.623 342.776 127.223 346.376C130.824 349.977 135.708 352 140.8 352H371.2C376.292 352 381.176 349.977 384.776 346.376C388.377 342.776 390.4 337.892 390.4 332.8V217.6C390.381 199.783 383.295 182.702 370.696 170.103C358.098 157.505 341.017 150.419 323.2 150.4ZM371.2 217.6V227.2H332.8V170.56C343.635 172.788 353.37 178.683 360.365 187.251C367.36 195.82 371.186 206.539 371.2 217.6ZM265.6 265.6H246.4V227.2H265.6V265.6ZM236.8 284.8H275.2C277.746 284.8 280.188 283.788 281.988 281.988C283.788 280.188 284.8 277.746 284.8 275.2V246.4H313.6V332.8H198.4V246.4H227.2V275.2C227.2 277.746 228.211 280.188 230.012 281.988C231.812 283.788 234.254 284.8 236.8 284.8ZM284.8 227.2V217.6C284.8 215.054 283.788 212.612 281.988 210.812C280.188 209.011 277.746 208 275.2 208H236.8C234.254 208 231.812 209.011 230.012 210.812C228.211 212.612 227.2 215.054 227.2 217.6V227.2H198.4V169.6H313.6V227.2H284.8ZM179.2 170.56V227.2H140.8V217.6C140.813 206.539 144.64 195.82 151.635 187.251C158.63 178.683 168.365 172.788 179.2 170.56ZM140.8 246.4H179.2V332.8H140.8V246.4ZM371.2 332.8H332.8V246.4H371.2V332.8Z" fill="black"/>
</svg>
