<svg width="512" height="512" viewBox="0 0 512 512" fill="none" xmlns="http://www.w3.org/2000/svg">
<circle cx="256" cy="256" r="256" fill="#BDBDBD"/>
<path d="M279.93 114.603C271.136 114.544 261.804 124.294 257.696 132.378C252.782 142.048 249.2 158.4 254.2 167.618L246.022 171.508C242.566 169.214 218.196 163.54 207.99 165.059C191.441 169.056 176.196 177.625 160.715 185.363L168.014 201.363C181.892 195.111 193.766 184.285 209.948 183.109C222.867 182.169 230.712 190.03 240.419 194.24C239.78 235.578 230.315 254.945 208.001 290.504C192.084 300.579 171.273 301.14 151.535 304.12L159.107 321.114C183.603 317.862 207.237 315.075 224.475 305.124C259.337 280.063 275.875 267.739 313.601 249.696C331.781 255.354 338.343 273.16 346.619 286.324L361.117 272.746C353.617 256.33 334.627 235.738 313.601 222.307C299.985 226.533 287.148 232.513 275.121 240.313C279.105 225.511 279.111 213.447 274.115 198.644C285.389 202.768 296.25 204.816 306.683 204.726C323.205 192.486 332.293 176.943 344.279 162.687L332.8 153.138C322.924 164.494 317.218 175.85 303.158 187.206C293.364 186.426 283.805 182.14 274.289 177.192L272.65 172.623C281.896 168.639 290.748 158.173 293.85 149.343C297.782 138.155 294.794 119.31 283.648 115.261C282.456 114.829 281.198 114.607 279.93 114.603ZM113.2 332.8V398.8H198.4V332.8H113.2ZM313.6 332.8V398.8H398.8V332.8H313.6Z" fill="black"/>
</svg>
