<svg width="512" height="512" viewBox="0 0 512 512" fill="none" xmlns="http://www.w3.org/2000/svg">
<circle cx="256" cy="256" r="256" fill="#BDBDBD"/>
<path fill-rule="evenodd" clip-rule="evenodd" d="M206.013 153.2H178.8C175.405 153.2 172.15 154.548 169.749 156.949C167.349 159.349 166 162.605 166 166C166 169.395 167.349 172.65 169.749 175.051C172.15 177.451 175.405 178.8 178.8 178.8H206.013C203.845 170.404 203.845 161.596 206.013 153.2ZM210.109 189.501C175.28 208.419 166 247.344 166 268.4V332.4C166 342.584 170.046 352.351 177.247 359.553C184.448 366.754 194.216 370.8 204.4 370.8H204.758C204.534 368.914 204.414 367.016 204.4 365.117V294C204.4 280.421 209.794 267.398 219.396 257.796C228.998 248.194 242.021 242.8 255.6 242.8C269.179 242.8 282.202 248.194 291.804 257.796C301.406 267.398 306.8 280.421 306.8 294V365.117C306.8 367.045 306.681 368.94 306.442 370.8H306.8C316.984 370.8 326.752 366.754 333.953 359.553C341.154 352.351 345.2 342.584 345.2 332.4V268.4C345.2 247.344 335.907 208.419 301.104 189.501C296.795 197.854 290.27 204.861 282.244 209.752C274.217 214.644 264.999 217.231 255.6 217.231C246.201 217.231 236.983 214.644 228.956 209.752C220.93 204.861 214.405 197.854 210.096 189.501H210.109ZM305.174 178.8H332.4C335.795 178.8 339.051 177.451 341.451 175.051C343.851 172.65 345.2 169.395 345.2 166C345.2 162.605 343.851 159.349 341.451 156.949C339.051 154.548 335.795 153.2 332.4 153.2H305.187C307.355 161.596 307.342 170.404 305.174 178.8ZM255.6 268.4C248.81 268.4 242.299 271.097 237.498 275.898C232.697 280.699 230 287.21 230 294V365.117C230 375.318 238.282 383.6 248.483 383.6H262.717C272.918 383.6 281.2 375.318 281.2 365.117V294C281.2 287.21 278.503 280.699 273.702 275.898C268.901 271.097 262.39 268.4 255.6 268.4ZM230 166C230 159.21 232.697 152.699 237.498 147.898C242.299 143.097 248.81 140.4 255.6 140.4C262.39 140.4 268.901 143.097 273.702 147.898C278.503 152.699 281.2 159.21 281.2 166C281.2 172.789 278.503 179.301 273.702 184.102C268.901 188.903 262.39 191.6 255.6 191.6C248.81 191.6 242.299 188.903 237.498 184.102C232.697 179.301 230 172.789 230 166Z" fill="black"/>
</svg>
