<svg width="512" height="512" viewBox="0 0 512 512" fill="none" xmlns="http://www.w3.org/2000/svg">
<circle cx="256" cy="256" r="256" fill="#BDBDBD"/>
<path d="M153.6 307.2V115.2H268.8V172.8C268.8 178.56 270.562 183.786 274.086 188.48C277.611 193.173 282.142 196.266 287.68 197.76L321.28 207.04C332.16 210.026 341.069 216.051 348.006 225.113C354.944 234.176 358.409 244.471 358.4 256V307.2H153.6ZM179.2 281.6H332.8V256C332.8 250.24 331.038 245.175 327.514 240.806C323.989 236.437 319.458 233.395 313.92 231.68L280.32 222.08C272.64 219.733 265.92 215.949 260.16 210.726C254.4 205.504 250.027 199.262 247.04 192H224C222.293 192 220.8 191.36 219.52 190.08C218.24 188.8 217.6 187.306 217.6 185.6C217.6 183.893 218.24 182.4 219.52 181.12C220.8 179.84 222.293 179.2 224 179.2H244.48C244.053 176.64 243.789 174.506 243.686 172.8C243.584 171.093 243.422 168.96 243.2 166.4H224C222.293 166.4 220.8 165.76 219.52 164.48C218.24 163.2 217.6 161.706 217.6 160C217.6 158.293 218.24 156.8 219.52 155.52C220.8 154.24 222.293 153.6 224 153.6H243.2V140.8H179.2V281.6ZM166.4 396.8C155.733 396.8 146.667 393.066 139.2 385.6C131.733 378.133 128 369.066 128 358.4C128 347.733 131.733 338.666 139.2 331.2C146.667 323.733 155.733 320 166.4 320C177.067 320 186.133 323.733 193.6 331.2C201.067 338.666 204.8 347.733 204.8 358.4C204.8 369.066 201.067 378.133 193.6 385.6C186.133 393.066 177.067 396.8 166.4 396.8ZM166.4 371.2C170.027 371.2 173.069 369.971 175.526 367.513C177.984 365.056 179.209 362.018 179.2 358.4C179.191 354.782 177.963 351.744 175.514 349.286C173.065 346.829 170.027 345.6 166.4 345.6C162.773 345.6 159.735 346.829 157.286 349.286C154.837 351.744 153.609 354.782 153.6 358.4C153.591 362.018 154.82 365.06 157.286 367.526C159.753 369.992 162.79 371.217 166.4 371.2ZM345.6 396.8C334.933 396.8 325.867 393.066 318.4 385.6C310.933 378.133 307.2 369.066 307.2 358.4C307.2 347.733 310.933 338.666 318.4 331.2C325.867 323.733 334.933 320 345.6 320C356.267 320 365.333 323.733 372.8 331.2C380.267 338.666 384 347.733 384 358.4C384 369.066 380.267 378.133 372.8 385.6C365.333 393.066 356.267 396.8 345.6 396.8ZM345.6 371.2C349.227 371.2 352.269 369.971 354.726 367.513C357.184 365.056 358.409 362.018 358.4 358.4C358.391 354.782 357.163 351.744 354.714 349.286C352.265 346.829 349.227 345.6 345.6 345.6C341.973 345.6 338.935 346.829 336.486 349.286C334.037 351.744 332.809 354.782 332.8 358.4C332.791 362.018 334.02 365.06 336.486 367.526C338.953 369.992 341.99 371.217 345.6 371.2ZM256 396.8C245.333 396.8 236.267 393.066 228.8 385.6C221.333 378.133 217.6 369.066 217.6 358.4C217.6 347.733 221.333 338.666 228.8 331.2C236.267 323.733 245.333 320 256 320C266.667 320 275.733 323.733 283.2 331.2C290.667 338.666 294.4 347.733 294.4 358.4C294.4 369.066 290.667 378.133 283.2 385.6C275.733 393.066 266.667 396.8 256 396.8ZM256 371.2C259.627 371.2 262.669 369.971 265.126 367.513C267.584 365.056 268.809 362.018 268.8 358.4C268.791 354.782 267.563 351.744 265.114 349.286C262.665 346.829 259.627 345.6 256 345.6C252.373 345.6 249.335 346.829 246.886 349.286C244.437 351.744 243.209 354.782 243.2 358.4C243.191 362.018 244.42 365.06 246.886 367.526C249.353 369.992 252.39 371.217 256 371.2Z" fill="black"/>
</svg>
