<svg width="512" height="512" viewBox="0 0 512 512" fill="none" xmlns="http://www.w3.org/2000/svg">
<circle cx="256" cy="256" r="256" fill="#BDBDBD"/>
<path d="M147.76 161.68C147.178 162.051 146.627 162.493 146.109 163.005L118.173 190.941C114.282 194.839 112.082 200.114 112.049 205.622C112.017 211.13 114.155 216.43 118 220.374L118.182 220.566L119.046 221.517L122.368 225.107C125.248 228.208 129.386 232.672 134.493 238.105C147.561 252.029 160.775 265.815 174.131 279.462C204.544 310.499 241.072 346.009 262.835 360.64C287.344 377.19 309.616 386.512 325.878 391.705C334.019 394.297 340.643 395.872 345.319 396.793C347.636 397.252 349.966 397.639 352.307 397.955L352.643 397.993C359.123 399.021 364.855 399.203 369.952 398.137C374.969 397.149 379.575 394.678 383.171 391.043L389.891 384.323C390.391 383.824 390.826 383.283 391.197 382.701C394.225 379.952 396.643 376.6 398.297 372.86C399.95 369.12 400.802 365.075 400.797 360.985C399.674 348.573 387.962 341.401 377.594 335.065C372.372 332.484 367.713 328.895 363.885 324.505L356.253 306.688H356.32C358.993 306.688 361.557 305.626 363.448 303.735C365.338 301.845 366.4 299.281 366.4 296.608C366.4 293.934 365.338 291.37 363.448 289.48C361.557 287.59 358.993 286.528 356.32 286.528H347.613L341.43 272.089C343.612 271.224 345.424 269.624 346.552 267.565C347.681 265.507 348.055 263.119 347.612 260.814C347.168 258.509 345.934 256.431 344.122 254.939C342.31 253.447 340.034 252.633 337.687 252.64H333.098L327.991 240.726C330.627 240.612 333.114 239.467 334.916 237.54C336.718 235.612 337.693 233.054 337.63 230.416C337.567 227.777 336.472 225.269 334.58 223.429C332.688 221.589 330.15 220.565 327.51 220.576H319.36L315.414 211.36C314.819 209.92 314.454 208.883 314.147 208C312.867 203.806 310.479 200.035 307.235 197.085L302.243 192.083C299.942 189.869 297.159 188.22 294.112 187.264V182.944C288.112 164.848 266.224 158.541 251.546 169.552L231.117 148.72C232.954 146.866 234.406 144.668 235.39 142.251C236.375 139.835 236.872 137.247 236.853 134.638C236.834 132.028 236.3 129.449 235.281 127.046C234.262 124.644 232.778 122.467 230.915 120.64C225.314 115.057 217.728 111.922 209.819 111.922C201.911 111.922 194.325 115.057 188.723 120.64L147.76 161.68ZM238.595 249.808L238.624 242.656C238.624 226.336 232.288 210.784 220.96 199.168L179.584 156.966L202.288 134.233C203.308 133.21 204.534 132.415 205.885 131.903C207.236 131.391 208.681 131.173 210.123 131.264C211.565 131.355 212.971 131.753 214.247 132.43C215.523 133.108 216.64 134.05 217.523 135.193C213.844 138.892 211.779 143.897 211.779 149.113C211.779 154.33 213.844 159.335 217.523 163.033L260.051 205.677C263.893 209.379 269.02 211.448 274.355 211.448C279.691 211.448 284.818 209.379 288.659 205.677L293.651 210.669C294.815 211.588 295.642 212.868 296.003 214.307L296.032 214.403C296.445 215.593 296.954 217.033 297.76 218.905L298.47 220.576H289.408C283.84 220.576 279.328 225.088 279.328 230.656C279.353 233.321 280.423 235.871 282.308 237.756C284.193 239.641 286.742 240.711 289.408 240.736H307.11L312.208 252.64H304.672C299.104 252.64 294.592 257.152 294.592 262.72C294.617 265.385 295.687 267.935 297.572 269.82C299.457 271.705 302.006 272.775 304.672 272.8H320.848L326.723 286.528H317.344C311.776 286.528 307.264 291.04 307.264 296.608C307.264 299.392 308.416 301.888 310.24 303.712C312.064 305.536 314.56 306.592 317.344 306.688H335.363L346.24 332.089C351.268 340.526 358.717 347.256 367.619 351.405L367.648 351.424C372.477 354.371 381.453 359.843 381.693 362.579C381.693 363.117 381.165 364.758 378.765 367.446C362.356 365.399 346.251 361.396 330.794 355.523C302.551 344.656 273.357 325.35 262.461 291.193L262.451 291.174C258.563 279.078 249.798 264.995 239.642 251.209L238.595 249.808ZM131.728 206.953C131.49 206.662 131.36 206.297 131.36 205.921C131.36 205.545 131.49 205.181 131.728 204.889L153.184 183.424C155.11 185.312 157.35 187.529 159.904 190.077C170.498 200.672 180.84 211.517 190.922 222.601C202.518 235.369 214.413 249.337 224.195 262.605C234.122 276.073 241.293 288.064 244.182 297.04C244.627 298.441 245.101 299.834 245.603 301.216L131.747 206.973L131.728 206.953Z" fill="black"/>
</svg>
