<svg width="512" height="512" viewBox="0 0 512 512" fill="none" xmlns="http://www.w3.org/2000/svg">
<circle cx="256" cy="256" r="256" fill="#BDBDBD"/>
<path d="M345.6 230.4C338.432 230.4 331.648 231.808 325.248 233.984L287.488 160H243.2V179.2H275.712L286.976 201.216L256 270.464L233.344 216.96C236.8 215.68 239.872 212.224 239.872 208C239.872 202.752 235.648 198.4 230.4 198.4H204.8C199.424 198.4 195.072 202.752 195.072 208C195.072 213.248 199.424 217.6 204.8 217.6H212.608L241.408 284.8H229.376C224.768 254.08 198.4 230.4 166.4 230.4C131.072 230.4 102.4 259.072 102.4 294.4C102.4 329.728 131.072 358.4 166.4 358.4C198.4 358.4 224.768 334.72 229.376 304H262.4L298.112 223.104L308.224 242.688C300.002 248.577 293.3 256.339 288.67 265.33C284.041 274.322 281.617 284.286 281.6 294.4C281.6 329.728 310.272 358.4 345.6 358.4C380.928 358.4 409.6 329.728 409.6 294.4C409.6 259.072 380.928 230.4 345.6 230.4ZM166.4 339.2C141.696 339.2 121.6 319.104 121.6 294.4C121.6 269.696 141.696 249.6 166.4 249.6C187.776 249.6 205.696 264.704 210.048 284.8H153.6V304H210.048C207.874 313.964 202.361 322.885 194.423 329.287C186.485 335.689 176.598 339.186 166.4 339.2ZM345.6 339.2C320.896 339.2 300.8 319.104 300.8 294.4C300.8 280.576 307.2 268.416 317.056 260.224L340.096 305.28L356.992 296.064L334.08 251.264C337.792 250.368 341.632 249.6 345.6 249.6C370.304 249.6 390.4 269.696 390.4 294.4C390.4 319.104 370.304 339.2 345.6 339.2Z" fill="black"/>
</svg>
