<svg width="512" height="512" viewBox="0 0 512 512" fill="none" xmlns="http://www.w3.org/2000/svg">
<circle cx="256" cy="256" r="256" fill="#FFF59D"/>
<path d="M279.679 278.929C287.648 281.627 296.311 277.578 299.094 269.793C301.865 262.027 297.638 253.585 289.663 250.882C281.688 248.179 273.019 252.301 270.248 260.067C269.606 261.924 269.341 263.89 269.469 265.85C269.597 267.811 270.116 269.726 270.994 271.483C271.873 273.24 273.094 274.804 274.585 276.083C276.076 277.361 277.808 278.329 279.679 278.929ZM404.697 182.131C404.697 182.131 353.112 176.085 245.979 176.085C166.955 176.085 102.4 182.131 102.4 182.131C102.4 182.131 129.169 193.614 124.525 229.212C124.525 229.212 162.937 224.752 179.028 256.799L251.177 235.485L246.458 282.376L215.941 289.669C213.238 290.277 210.952 291.561 209.084 293.177L142.133 356.135C141.2 356.995 140.452 358.036 139.934 359.195C139.416 360.354 139.139 361.605 139.12 362.874C139.101 364.143 139.34 365.403 139.824 366.576C140.307 367.75 141.024 368.813 141.93 369.701C145.672 373.559 151.982 373.694 155.865 370.045L206.24 322.773L267.956 308.052L267.538 308.181L277.799 305.613L287.23 316.088C288.686 317.637 290.763 318.583 292.987 318.583L326.201 318.712C330.367 318.712 333.826 315.406 333.826 311.284C333.826 307.702 331.264 304.937 327.866 304.12L303.112 220.187L406.221 189.762C411.148 187.66 410.73 182.77 404.697 182.131ZM320.451 303.782C312.893 303.782 300.268 303.714 296.458 303.714L278.561 283.992L277.799 283.451C275.962 281.34 273.587 279.767 270.926 278.898C268.266 278.029 265.42 277.898 262.691 278.518L253.739 280.687L258.525 233.322L296.311 222.183L320.451 303.782Z" fill="black"/>
</svg>
