<svg width="512" height="512" viewBox="0 0 512 512" fill="none" xmlns="http://www.w3.org/2000/svg">
<circle cx="256" cy="256" r="256" fill="#FFF59D"/>
<path d="M242.8 396.4C236.01 396.4 229.499 393.703 224.698 388.902C219.897 384.101 217.2 377.589 217.2 370.8V345.2H294V370.8C294 377.589 291.303 384.101 286.502 388.902C281.701 393.703 275.19 396.4 268.4 396.4H242.8ZM255.6 114.8C264.688 114.8 273.392 115.952 281.84 118.128C296.816 138.224 306.8 175.088 306.8 217.2C306.8 246.384 301.936 273.136 294 306.8C294 313.589 291.303 320.101 286.502 324.902C281.701 329.703 275.19 332.4 268.4 332.4H242.8C236.01 332.4 229.499 329.703 224.698 324.902C219.897 320.101 217.2 313.589 217.2 306.8C209.264 273.136 204.4 246.384 204.4 217.2C204.4 175.088 214.384 138.224 229.36 118.128C237.808 115.952 246.512 114.8 255.6 114.8ZM358 204.4C358 245.104 334.32 305.776 299.888 322.288C312.048 298.992 319.6 253.424 319.6 217.2C319.6 180.976 312.048 148.208 299.888 124.912C334.32 141.424 358 163.696 358 204.4ZM153.2 204.4C153.2 163.696 176.88 141.424 211.312 124.912C199.152 148.208 191.6 180.976 191.6 217.2C191.6 253.424 199.152 298.992 211.312 322.288C176.88 305.776 153.2 245.104 153.2 204.4Z" fill="black"/>
</svg>
