<svg width="512" height="512" viewBox="0 0 512 512" fill="none" xmlns="http://www.w3.org/2000/svg">
<circle cx="256" cy="256" r="256" fill="#FFF59D"/>
<path d="M373.76 242.56L256 396.8L137.984 242.688L139.136 241.664C141.824 238.976 145.024 236.8 148.224 235.008L239.744 354.432L212.224 268.8L220.672 253.568L256 363.264L290.944 253.44L299.52 268.8L272.256 354.432L363.648 234.88C366.848 236.8 369.92 238.592 372.48 241.28L373.76 242.56ZM166.4 217.6C185.6 217.6 202.368 228.608 211.2 244.48C215.534 236.363 221.991 229.576 229.881 224.842C237.771 220.108 246.799 217.605 256 217.6C275.2 217.6 291.84 228.48 300.8 244.352C305.107 236.223 311.561 229.43 319.46 224.713C327.359 219.996 336.4 217.536 345.6 217.6C359.552 217.6 372.352 222.976 381.568 232.192C370.432 172.8 318.464 128 256 128C193.152 128 141.184 172.8 130.048 232.576C139.392 223.36 152.192 217.6 166.4 217.6Z" fill="black"/>
</svg>
