<svg width="512" height="512" viewBox="0 0 512 512" fill="none" xmlns="http://www.w3.org/2000/svg">
<circle cx="256" cy="256" r="256" fill="#FFF59D"/>
<path d="M256 320C241.92 320 230.4 308.608 230.4 294.4C230.4 280.192 241.92 268.8 256 268.8C270.08 268.8 281.6 280.32 281.6 294.4C281.6 308.48 270.208 320 256 320ZM345.6 281.6H320C320 316.928 291.328 345.6 256 345.6C220.672 345.6 192 316.928 192 281.6H166.4C166.4 317.312 187.392 348.032 217.6 362.496V396.8H294.4V362.496C324.608 348.032 345.6 317.312 345.6 281.6ZM396.8 201.728C397.312 211.968 384.64 218.368 376.448 212.48C374.656 210.688 373.248 210.432 371.2 208.896L345.216 268.8H320L300.8 188.544C271.488 185.6 240.512 185.6 211.2 188.544L192 268.8H166.784L140.8 208.896C138.752 210.432 137.344 210.688 135.552 212.48C127.36 218.368 114.675 211.968 115.2 201.728V153.6C115.2 153.6 115.2 115.2 256 115.2C396.8 115.2 396.8 153.6 396.8 153.6M190.72 192C179.2 194.56 168.32 197.504 158.336 201.088L177.536 246.656L190.72 192ZM353.664 201.088C343.68 197.504 332.8 194.56 321.28 192L334.464 246.656L353.664 201.088Z" fill="black"/>
</svg>
