<svg width="512" height="512" viewBox="0 0 512 512" fill="none" xmlns="http://www.w3.org/2000/svg">
<circle cx="256" cy="256" r="256" fill="#FFF59D"/>
<path d="M255.6 191.6C264.087 191.6 272.226 188.229 278.227 182.228C284.229 176.226 287.6 168.087 287.6 159.6C287.6 151.113 284.229 142.974 278.227 136.973C272.226 130.972 264.087 127.6 255.6 127.6C247.113 127.6 238.974 130.972 232.973 136.973C226.971 142.974 223.6 151.113 223.6 159.6C223.6 168.087 226.971 176.226 232.973 182.228C238.974 188.229 247.113 191.6 255.6 191.6Z" stroke="black" stroke-width="20" stroke-miterlimit="2"/>
<path d="M255.6 230C199.856 230 153.2 276.592 153.2 332.4H198M255.6 230C311.344 230 358.064 276.656 358 332.4H313.2M255.6 230V383.6M198 332.4V383.6H313.2V332.4M198 332.4V249.2M313.2 332.4V249.2" stroke="black" stroke-width="20" stroke-miterlimit="2" stroke-linecap="round" stroke-linejoin="round"/>
</svg>
