<svg width="512" height="512" viewBox="0 0 512 512" fill="none" xmlns="http://www.w3.org/2000/svg">
<circle cx="256" cy="256" r="256" fill="#E3F2FD"/>
<g clip-path="url(#clip0_14_38)">
<path d="M215.019 154.872C232.194 157.503 246.772 142.922 244.141 125.744C242.503 115.037 233.753 106.291 223.056 104.653C205.881 102.022 191.303 116.603 193.934 133.781C195.572 144.481 204.322 153.234 215.019 154.872Z" fill="black"/>
<path d="M243.281 182.034C241.134 183.162 239.047 184.181 236.956 185.197C238.763 188.022 240.738 190.787 242.888 193.384C243.959 194.744 245.088 196.037 246.328 197.281C248.816 195.816 251.581 194.175 256.778 191.128C256.778 191.1 256.794 191.106 256.803 191.1C256.888 191.106 256.972 191.116 257.05 191.116C259.856 191.116 262.291 189.019 262.644 186.162C263.716 177.528 266.181 169.194 269.978 161.4C273.641 153.884 278.497 147.116 284.306 141.131C284.444 141.319 284.594 141.475 284.725 141.669C287.413 145.662 287.678 149.809 287.6 151.928C287.484 155.044 289.916 157.666 293.034 157.781C293.106 157.784 293.175 157.784 293.247 157.784C296.269 157.784 298.772 155.391 298.891 152.35C299.022 148.856 298.575 142.012 294.097 135.356C288.422 126.934 279.991 124.256 276.631 123.497C273.588 122.816 270.566 124.719 269.875 127.762C269.188 130.806 271.097 133.828 274.141 134.519C274.331 134.562 274.575 134.628 274.816 134.697C268.781 141.184 263.728 148.456 259.825 156.453C256.503 163.269 254.091 170.447 252.581 177.862C251.516 177.919 250.5 178.2 249.491 178.703C247.459 179.831 245.369 180.962 243.281 182.034Z" fill="black"/>
<mask id="mask0_14_38" style="mask-type:luminance" maskUnits="userSpaceOnUse" x="126" y="134" width="253" height="276">
<path d="M126.8 134H378.409V409.2H126.8V134Z" fill="white"/>
</mask>
<g mask="url(#mask0_14_38)">
<path d="M375.45 134.391L296.778 193.947C296.963 193.328 297.091 192.687 297.05 192.006C296.641 185.2 294.091 178.631 289.869 173.516C286.941 169.962 283.316 167.144 279.097 165.137C276.294 163.787 272.913 164.981 271.569 167.8C270.228 170.619 271.425 173.991 274.238 175.328C274.681 175.541 275.044 175.847 275.466 176.081C267.775 183.075 261.35 191.425 256.847 200.687C254.35 205.819 252.478 211.172 251.116 216.672C246.413 213.222 241.294 208.816 236.384 203.156C235.594 202.306 234.863 201.459 234.128 200.559C231.191 196.944 228.65 193.328 226.619 189.825C222.269 182.766 219.503 176.103 217.75 170.619C215.888 165.028 212.272 160.109 207.191 157.175C202.391 154.409 195.897 152.037 188.219 152.712H188.103C181.384 153.281 175.225 156.384 170.597 161.241C164.553 167.566 158.228 175.191 152.188 184.172C138.694 204.287 131.522 224.062 127.569 239.65C125.988 245.862 127.003 252.359 130.394 257.728C136.891 267.784 143.666 278.006 150.891 288.344C155.916 295.631 161.003 302.691 166.025 309.584C168.116 312.409 169.016 315.853 168.569 319.356C165.975 339.237 163.431 354.544 160.831 375.053C160.041 381.434 164.669 387.25 170.994 387.984H171.216C171.888 388.062 172.547 388.056 173.203 388.022L158.834 406.462C157.966 407.578 158.759 409.2 160.169 409.2H378.159V135.744C378.172 134.344 376.569 133.547 375.45 134.391ZM255.359 356.225L231.828 399.534C230.803 401.422 228.869 402.484 226.863 402.484C225.953 402.484 225.025 402.266 224.172 401.803C221.431 400.316 220.419 396.881 221.909 394.141L245.441 350.828C246.928 348.087 250.35 347.078 253.097 348.562C255.831 350.053 256.847 353.481 255.359 356.225ZM279.206 210.594L266.656 266.344C266.291 267.966 265.569 269.491 264.544 270.806L184.75 373.209C187.772 353.878 190.788 338.678 193.809 318.731C194.034 317.322 194.034 315.85 193.809 314.437C191.775 302.916 188.103 288.625 181.047 273.319C177.659 265.975 174.047 259.537 170.431 253.887C169.525 252.422 170.316 250.553 171.956 250.216C177.547 249.028 185.847 248.237 195.447 250.331C201.319 251.687 206.178 253.775 209.794 255.75C211.034 256.428 211.544 257.784 211.203 259.084C208.153 269.481 205.388 281.228 203.297 294.275C202.225 301.169 201.434 307.775 200.869 314.1C200.3 320.369 205.331 325.737 211.597 325.737C216.397 325.737 220.631 322.575 221.931 317.944C227.409 299.306 232.884 280.666 238.309 262.025C239.438 258.128 239.044 253.887 237.009 250.387C234.128 245.303 229.666 239.087 222.947 233.328C210.125 222.259 196.347 219.209 190.191 218.247C194.991 210.169 199.791 202.094 204.591 194.016C209.959 200.794 216.45 208.191 224.297 215.647C232.541 223.497 240.675 229.937 248.3 235.247C251.125 237.225 254.509 237.225 257.169 235.759C259.144 234.687 260.669 232.875 261.294 230.503L261.35 230.331C261.813 228.5 261.616 226.637 260.909 224.978C262 218.256 264.025 211.769 267.009 205.637C270.956 197.516 276.625 190.216 283.419 184.125C285.181 187.5 285.659 190.769 285.778 192.694C285.956 195.691 288.447 198 291.413 198C291.419 198 291.428 198 291.434 198L283.413 204.072C281.281 205.678 279.794 207.987 279.206 210.594ZM357.647 398.644C357.347 398.697 357.038 398.719 356.741 398.719C354.022 398.719 351.619 396.741 351.178 393.962L334.238 288.525C333.744 285.447 335.834 282.553 338.919 282.053C341.991 281.534 344.894 283.65 345.388 286.737L362.328 392.172C362.822 395.253 360.725 398.15 357.647 398.644Z" fill="black"/>
</g>
</g>
<defs>
<clipPath id="clip0_14_38">
<rect width="307.2" height="307.2" fill="white" transform="translate(102 102)"/>
</clipPath>
</defs>
</svg>
