<svg width="512" height="512" viewBox="0 0 512 512" fill="none" xmlns="http://www.w3.org/2000/svg">
<circle cx="256" cy="256" r="256" fill="#E3F2FD"/>
<path d="M281.6 160C295.733 160 307.2 147.1 307.2 131.2C307.2 115.3 295.733 102.4 281.6 102.4C267.467 102.4 256 115.3 256 131.2C256 147.1 267.467 160 281.6 160ZM396.8 352C389.76 352 384 358.42 384 366.4C384 374.32 378.24 380.8 371.2 380.8H334.133L347.733 273.76C353.973 270.94 358.453 264.04 358.453 256C358.453 245.38 350.827 236.8 341.387 236.8H317.92L304 204.88C297.333 189.58 285.067 178.36 271.04 174.34L233.067 161.62C217.973 157.54 202.24 161.32 189.973 171.88L168.8 190.12C161.333 196.54 159.893 208.6 165.653 217.06C166.027 217.6 166.56 217.84 166.933 218.32L138.08 380.8H115.2C108.16 380.8 102.4 387.22 102.4 395.2C102.4 403.18 108.16 409.6 115.2 409.6H371.2C392.373 409.6 409.6 390.22 409.6 366.4C409.6 358.48 403.84 352 396.8 352ZM257.867 380.8H206.187L229.173 326.2L217.44 318.4C210.987 314.08 205.76 308.26 201.707 301.72L168.373 380.8H155.467L183.36 223.96C185.547 223.36 187.68 222.22 189.6 220.6L210.773 202.36C214.88 198.82 220.053 197.56 224.267 198.7L232.107 201.34L212.107 253.78C205.387 271.48 211.413 292.18 226.133 301.96L271.467 332.08L257.867 380.8ZM316.853 380.8H293.6L306.187 335.5C309.333 323.02 304.64 309.64 294.667 302.86L262.027 281.2L278.72 234.22L289.547 259.06C293.813 268.84 302.827 275.2 312.533 275.2H330.293L316.853 380.8Z" fill="black"/>
</svg>
