<svg width="512" height="512" viewBox="0 0 512 512" fill="none" xmlns="http://www.w3.org/2000/svg">
<circle cx="256" cy="256" r="256" fill="#E3F2FD"/>
<path d="M376.286 102C358.114 102 343.371 114.9 343.371 130.8C343.371 146.7 358.114 159.6 376.286 159.6C394.457 159.6 409.2 146.7 409.2 130.8C409.2 114.9 394.457 102 376.286 102ZM376.286 370.8C370.251 370.8 365.314 375.12 365.314 380.4C365.314 385.68 360.377 390 354.343 390H288.514C282.48 390 277.543 394.32 277.543 399.6C277.543 404.88 282.48 409.2 288.514 409.2H354.343C372.514 409.2 387.257 396.3 387.257 380.4C387.257 375.12 382.32 370.8 376.286 370.8ZM182.777 375.96C178.526 379.68 171.531 379.74 167.28 375.96L120.72 335.22C116.469 331.5 109.474 331.5 105.223 335.22C100.971 338.94 100.971 345.06 105.223 348.78L151.783 389.52C158.229 395.16 166.663 397.92 175.097 397.92C183.531 397.92 191.966 395.1 198.343 389.52C202.594 385.8 202.594 379.68 198.343 375.96C194.091 372.24 187.097 372.18 182.777 375.96ZM221.246 268.08L156.994 324.3C148.423 331.8 148.423 343.98 156.994 351.42C161.246 355.14 166.869 357.06 172.491 357.06C178.114 357.06 183.737 355.2 187.989 351.42L251.006 296.28L230.297 278.16C226.869 275.16 223.851 271.74 221.246 268.08ZM189.771 198H262.114L248.331 208.32C239.074 215.22 233.52 225.36 233.04 235.98C232.56 246.66 237.223 257.1 245.863 264.6L299.486 311.52V361.2C299.486 371.82 309.291 380.4 321.429 380.4C333.566 380.4 343.371 371.82 343.371 361.2V307.56C343.371 300 339.874 292.56 333.703 287.22L291.874 250.62C292.217 250.38 292.697 250.26 293.04 249.96L349.474 200.58C357.36 193.68 359.691 183.42 355.44 174.42C351.189 165.42 341.246 159.6 330.069 159.6H189.771C177.634 159.6 167.829 168.18 167.829 178.8C167.829 189.42 177.634 198 189.771 198Z" fill="black"/>
</svg>
