<svg width="512" height="512" viewBox="0 0 512 512" fill="none" xmlns="http://www.w3.org/2000/svg">
<circle cx="256" cy="256" r="256" fill="#E3F2FD"/>
<path d="M382.336 363.136C380.928 360.96 379.136 359.552 376.704 359.168C375.276 358.765 373.771 358.717 372.321 359.03C370.871 359.342 369.519 360.005 368.384 360.96C363.904 364.8 358.912 367.744 353.024 369.408C347.264 371.2 341.248 371.2 334.848 369.92L320.512 366.336L307.2 287.488L265.472 253.312L288 216.832C295.424 228.48 305.28 237.824 317.824 244.992C330.368 252.16 344.064 256 358.784 256V230.016C346.752 230.016 336.128 226.816 326.784 220.416C317.44 214.016 310.528 205.696 306.176 195.328L299.008 179.84C297.728 177.408 295.424 174.592 292.096 171.392C288.64 168.192 284.032 166.4 278.016 166.4H205.696L173.312 217.6L195.456 231.168L219.392 192H249.6L217.6 242.56C213.632 248.576 212.48 255.104 214.016 262.4L224.768 306.56L179.968 336.512L173.952 335.232C168.046 334.123 162.506 331.573 157.824 327.808C153.088 323.968 149.504 319.488 147.2 314.368C145.92 311.168 143.744 309.376 140.8 308.992C137.728 308.224 135.168 308.608 132.992 310.144C130.816 311.68 129.536 313.6 129.152 316.16C128.768 318.08 128.896 320 129.664 322.176C133.376 330.112 138.624 337.024 145.536 342.784C152.576 348.544 160.64 352 169.856 353.792L331.264 388.48C340.48 390.4 349.312 390.4 357.888 387.84C366.464 385.536 374.144 381.312 380.928 375.296C382.464 374.144 383.488 372.608 384 370.56C384 367.744 384 365.312 382.336 363.136ZM214.656 344.192L253.568 318.592L247.552 276.096L284.032 301.824L293.632 360.96L214.656 344.192ZM332.8 140.8C332.8 155.008 321.408 166.4 307.2 166.4C292.992 166.4 281.6 155.008 281.6 140.8C281.6 126.592 293.12 115.2 307.2 115.2C321.28 115.2 332.8 126.72 332.8 140.8Z" fill="black"/>
</svg>
