<svg width="512" height="512" viewBox="0 0 512 512" fill="none" xmlns="http://www.w3.org/2000/svg">
<circle cx="256" cy="256" r="256" fill="#E3F2FD"/>
<path d="M229.513 178.542C241.678 178.542 251.515 168.411 251.515 155.797C251.515 143.319 241.678 133.12 229.513 133.12C217.342 133.12 207.462 143.319 207.462 155.797C207.462 168.411 217.342 178.542 229.513 178.542ZM255.422 360.448H360.233C360.233 360.448 367.01 361.677 380.484 350.544L403.456 333.255V353.653L380.023 371.704C380.023 371.704 373.062 377.534 361.333 378.88H246.637L255.422 360.448ZM109.423 378.88H214.282L223.001 360.448H117.299L108.544 378.88H109.423ZM240.585 206.958C240.585 193.982 229.722 183.439 217.582 183.439C205.423 183.439 194.56 193.982 194.56 206.958V264.46C194.56 271.741 199.881 280.576 204.784 280.576H155.521L128.887 333.31C128.303 334.483 128.045 336.99 128.045 338.379C128.039 343.097 134.846 348.16 139.264 348.16H317.44C317.44 348.16 325.482 348.866 337.236 339.005L384.391 301.668L366.592 268.288C366.592 268.288 362.562 260.172 347.503 257.732L311.904 251.312L292.809 217.237L291.992 216.881C289.196 213.483 286.72 213.127 280.576 216.039V216.113C280.576 218.331 277.436 221.938 278.677 225.126L292.864 250.384V250.587L274.205 282.843L237.568 268.263V256H268.835C270.211 256 271.636 254.845 272.994 254.224C278.395 252.086 281.055 245.131 278.972 239.436C277.43 234.994 273.51 232.106 269.431 232.038L240.523 231.842L240.585 206.958Z" fill="black"/>
</svg>
