<svg width="512" height="512" viewBox="0 0 512 512" fill="none" xmlns="http://www.w3.org/2000/svg">
<circle cx="256" cy="256" r="256" fill="#E3F2FD"/>
<path d="M315.087 156.068C328.075 156.068 338.563 145.414 338.563 132.303C338.563 119.191 328.075 108.544 315.087 108.544C302.086 108.544 291.518 119.198 291.518 132.309C291.518 145.42 302.086 156.068 315.087 156.068ZM378.247 246.71C374.149 256.24 365.4 253.376 365.4 253.376L328.561 239.35C326.738 238.692 325.103 237.602 323.794 236.174C322.485 234.745 321.543 233.02 321.047 231.147L312.715 206.614L299.715 242.717L337.943 283.163C342.729 291.654 342.016 297.884 342.016 297.884V353.683C342.016 353.683 366.979 364.829 366.979 378.567C366.979 392.311 356.08 403.456 342.458 403.456C340.517 403.456 338.704 403.247 336.83 402.756L256 384.606V372.546L317.44 358.943V308.126L276.158 266.973L269.689 310.092C268.657 315.566 264.657 320.678 262.42 323.203L234.035 356.356C233.624 356 233.046 356 232.493 356.073L233.998 356.356C237.729 359.296 240.545 363.237 242.117 367.719C243.689 372.2 243.953 377.037 242.876 381.663C239.768 395.051 226.417 403.321 213.207 400.169C211.316 399.706 209.477 399.05 207.72 398.209L133.12 361.603L135.903 349.893L204.317 350.876L236.843 312.961L246.907 238.367L268.024 181.934L238.791 198.898L221.348 233.39C216.064 244.326 206.547 238.576 206.547 238.576C197.927 233.599 201.263 225.188 201.263 225.188L219.124 188.735C223.922 179.483 227.744 178.082 227.744 178.082L269.486 155.017C278.585 148.707 289.153 153.616 289.153 153.616L313.194 162.802C325.218 167.152 325.71 173.947 325.71 173.947L340.584 221.968L372.619 233.39C372.619 233.39 381.239 237.107 378.247 246.71ZM340.72 392.169L342.606 392.311C350.114 392.311 355.932 386.142 355.932 378.567C355.932 371.003 348.16 364.835 342.016 364.835V367.71C342.016 374.929 336.486 380.815 329.31 380.815C322.994 380.815 318.128 376.189 316.961 370.162L279.206 378.573L340.72 392.169ZM213.981 388.735L215.714 389.3C217.459 389.715 219.269 389.781 221.039 389.493C222.81 389.206 224.506 388.572 226.03 387.627C227.555 386.682 228.878 385.445 229.922 383.987C230.967 382.529 231.713 380.879 232.118 379.132C232.744 376.475 232.569 373.693 231.615 371.135C230.662 368.578 228.973 366.36 226.761 364.761L221.2 371.286C220.089 372.587 218.73 373.654 217.203 374.426C215.676 375.198 214.011 375.659 212.305 375.782C210.598 375.906 208.884 375.689 207.262 375.145C205.64 374.601 204.141 373.74 202.854 372.613C199.66 369.805 198.412 365.824 198.621 361.892L157.235 361.185L213.981 388.735Z" fill="black"/>
</svg>
