<svg width="512" height="512" viewBox="0 0 512 512" fill="none" xmlns="http://www.w3.org/2000/svg">
<circle cx="256" cy="256" r="256" fill="#81C784"/>
<g clip-path="url(#clip0_20_6)">
<mask id="mask0_20_6" style="mask-type:luminance" maskUnits="userSpaceOnUse" x="102" y="108" width="308" height="294">
<path d="M102 108.719H409.2V402H102V108.719Z" fill="white"/>
</mask>
<g mask="url(#mask0_20_6)">
<path d="M165.834 108.981C149.337 108.981 135.912 122.416 135.912 138.928C135.912 155.437 149.337 168.875 165.834 168.875C182.331 168.875 195.756 155.437 195.756 138.928C195.756 122.416 182.331 108.981 165.834 108.981ZM402.016 109.331C401.15 109.322 400.316 109.478 399.512 109.794C398.709 110.109 397.994 110.569 397.366 111.162L301.237 200.2C298.722 192.647 291.144 187.712 282.991 189.034L246.003 194.728C224.95 181.144 224.516 180.887 224.25 180.728C218.272 177.141 211.512 175.416 204.431 175.541C201.844 175.616 199.256 175.966 197.053 176.516L157.6 185.484C144.694 188.253 133.209 196.216 126.081 207.334L105.3 239.75C102.781 243.684 102.019 248.497 103.222 253.022L116.522 302.934C118.225 309.309 123.406 313.791 129.469 314.956L103.406 365.466C103.203 365.853 103.044 366.259 102.922 366.678C102.8 367.097 102.722 367.525 102.684 367.962C102.647 368.397 102.653 368.834 102.703 369.269C102.75 369.703 102.841 370.128 102.975 370.544C103.106 370.962 103.278 371.359 103.491 371.744C103.7 372.125 103.947 372.484 104.231 372.819C104.512 373.153 104.825 373.456 105.166 373.728C105.506 374.003 105.872 374.237 106.259 374.437C106.647 374.641 107.053 374.8 107.472 374.922C107.891 375.044 108.319 375.122 108.756 375.156C109.191 375.194 109.625 375.187 110.059 375.137C110.494 375.091 110.919 375 111.334 374.866C111.75 374.731 112.15 374.559 112.531 374.35C112.916 374.137 113.272 373.891 113.606 373.606C113.941 373.325 114.244 373.012 114.516 372.672C114.787 372.328 115.022 371.962 115.222 371.575L145.703 312.5L293.575 225.219C293.984 224.978 294.366 224.697 294.716 224.375L406.406 120.937C406.903 120.491 407.325 119.978 407.669 119.4C408.012 118.825 408.266 118.212 408.422 117.559C408.581 116.906 408.641 116.247 408.6 115.578C408.559 114.906 408.419 114.259 408.181 113.631C407.944 113.003 407.619 112.425 407.206 111.894C406.794 111.366 406.312 110.909 405.762 110.525C405.212 110.141 404.619 109.847 403.978 109.644C403.341 109.441 402.687 109.337 402.016 109.331ZM401.912 168.862C401.537 168.866 401.166 168.9 400.794 168.966C400.794 168.966 388.634 171.172 376.6 182.287C364.566 193.403 352.184 213.509 348.731 248.069C348.666 248.516 348.644 248.962 348.672 249.412C348.697 249.859 348.766 250.303 348.881 250.737C348.997 251.172 349.153 251.591 349.353 251.994C349.553 252.397 349.794 252.778 350.069 253.131C350.347 253.484 350.656 253.809 351 254.1C351.341 254.394 351.709 254.647 352.103 254.862C352.497 255.081 352.909 255.256 353.337 255.391C353.769 255.522 354.206 255.612 354.653 255.656C355.1 255.7 355.547 255.7 355.994 255.653C356.444 255.606 356.881 255.516 357.309 255.381C357.737 255.247 358.15 255.069 358.541 254.85C358.934 254.631 359.303 254.375 359.644 254.081C359.984 253.787 360.294 253.466 360.569 253.109C360.844 252.753 361.081 252.372 361.278 251.969C361.475 251.566 361.631 251.144 361.747 250.709C361.859 250.275 361.928 249.831 361.95 249.381C365.147 217.4 376.034 200.909 385.612 192.062C395.191 183.216 402.978 182.094 402.978 182.094C403.387 182.028 403.787 181.928 404.181 181.787C404.572 181.647 404.95 181.475 405.306 181.262C405.666 181.053 406.003 180.812 406.319 180.537C406.631 180.266 406.916 179.966 407.175 179.637C407.431 179.312 407.656 178.966 407.85 178.594C408.041 178.225 408.2 177.844 408.319 177.444C408.441 177.047 408.522 176.641 408.566 176.225C408.609 175.812 408.616 175.397 408.581 174.981C408.55 174.566 408.478 174.159 408.369 173.756C408.256 173.356 408.112 172.969 407.928 172.594C407.747 172.219 407.531 171.866 407.281 171.534C407.031 171.2 406.753 170.891 406.447 170.609C406.141 170.328 405.812 170.078 405.456 169.859C405.103 169.641 404.734 169.456 404.344 169.306C403.956 169.156 403.559 169.044 403.15 168.969C402.741 168.894 402.328 168.859 401.912 168.862ZM401.756 202.097C400.456 202.134 399.272 202.519 398.197 203.253C398.197 203.253 395.828 204.987 393.534 207.919C391.241 210.853 388.444 215.366 385.744 222.125C380.341 235.647 375.287 258.097 375.287 295.303V315.269C375.281 315.709 375.319 316.147 375.4 316.581C375.481 317.012 375.603 317.434 375.766 317.844C375.931 318.253 376.134 318.641 376.375 319.012C376.619 319.381 376.894 319.722 377.203 320.034C377.512 320.35 377.85 320.631 378.212 320.878C378.578 321.125 378.966 321.331 379.372 321.503C379.778 321.672 380.197 321.8 380.628 321.887C381.059 321.975 381.497 322.019 381.937 322.019C382.378 322.019 382.816 321.975 383.247 321.887C383.678 321.8 384.097 321.672 384.503 321.503C384.909 321.331 385.297 321.125 385.662 320.878C386.028 320.631 386.362 320.35 386.672 320.034C386.981 319.722 387.259 319.381 387.5 319.012C387.741 318.641 387.944 318.253 388.109 317.844C388.272 317.434 388.394 317.012 388.475 316.581C388.556 316.147 388.594 315.709 388.587 315.269V295.303C388.587 259.306 393.509 238.516 398.081 227.078C400.366 221.359 402.556 217.972 404.003 216.122C405.45 214.269 405.575 214.328 405.575 214.328C406.181 213.931 406.709 213.45 407.159 212.881C407.609 212.312 407.959 211.684 408.203 211.003C408.45 210.322 408.578 209.616 408.594 208.891C408.609 208.166 408.509 207.456 408.294 206.766C408.078 206.072 407.756 205.431 407.331 204.844C406.906 204.256 406.4 203.753 405.809 203.331C405.219 202.909 404.575 202.594 403.884 202.381C403.191 202.172 402.481 202.075 401.756 202.097ZM212.562 215.303L233.287 226.116C236.706 228.325 240.819 229.225 244.834 228.584L267.653 225.075L223.341 251.228L212.562 215.303ZM152.237 234.512L167.184 284.372L148.794 295.225C148.734 294.934 148.728 294.644 148.653 294.353L137.237 251.541L152.237 234.512ZM257.378 262.028L185.131 304.675C190.066 307.172 195.612 308.594 201.444 308.625C202.481 308.625 203.528 308.597 204.637 308.497C205.144 308.456 267.287 301.959 267.287 301.959L294.691 329.397C298.587 333.297 303.687 335.247 308.794 335.247C313.9 335.247 319.003 333.297 322.9 329.397C330.691 321.603 330.691 308.966 322.9 301.166L291.6 269.841C286.581 264.809 279.897 262.028 272.794 262.028H257.378ZM355.237 268.594C354.8 268.6 354.369 268.65 353.944 268.741C353.516 268.831 353.103 268.966 352.703 269.137C352.303 269.312 351.922 269.522 351.562 269.769C351.206 270.019 350.872 270.297 350.569 270.612C350.266 270.925 349.997 271.262 349.759 271.631C349.522 271.997 349.322 272.381 349.162 272.787C349 273.194 348.881 273.612 348.8 274.041C348.722 274.469 348.684 274.903 348.691 275.337C348.691 293.966 347.003 318.328 339.884 339.925C332.769 361.522 320.619 379.969 299.522 389.019C299.116 389.187 298.731 389.394 298.369 389.641C298.003 389.887 297.669 390.166 297.359 390.478C297.05 390.791 296.775 391.131 296.534 391.5C296.294 391.866 296.091 392.253 295.925 392.659C295.759 393.069 295.637 393.487 295.556 393.919C295.475 394.353 295.434 394.787 295.441 395.228C295.444 395.666 295.491 396.1 295.584 396.531C295.675 396.962 295.806 397.378 295.978 397.781C296.153 398.187 296.362 398.569 296.612 398.931C296.862 399.294 297.144 399.628 297.459 399.934C297.775 400.241 298.116 400.512 298.484 400.75C298.853 400.987 299.244 401.187 299.653 401.35C300.059 401.509 300.481 401.631 300.912 401.706C301.347 401.784 301.781 401.819 302.222 401.812C302.659 401.803 303.094 401.75 303.522 401.656C303.95 401.562 304.366 401.425 304.769 401.247C330.219 390.331 344.666 367.894 352.509 344.097C360.353 320.3 361.991 294.744 361.991 275.337C361.997 274.894 361.956 274.453 361.875 274.016C361.794 273.578 361.669 273.153 361.5 272.741C361.331 272.328 361.125 271.937 360.878 271.566C360.634 271.194 360.353 270.85 360.037 270.537C359.722 270.222 359.381 269.944 359.009 269.697C358.637 269.45 358.247 269.244 357.834 269.078C357.422 268.912 356.997 268.787 356.559 268.706C356.122 268.622 355.681 268.587 355.237 268.594ZM249.456 317.206C220.819 320.194 206.166 321.728 205.834 321.753C204.291 321.894 202.859 321.934 201.444 321.934C200.7 321.928 199.981 321.787 199.237 321.753L215.703 339.691V381.831C215.703 392.856 224.634 401.794 235.653 401.794C246.669 401.794 255.6 392.856 255.6 381.831V331.919C255.6 327.372 254.05 322.975 251.222 319.441C251.191 319.4 250.522 318.55 249.456 317.206ZM381.834 335.141C381.397 335.15 380.966 335.197 380.541 335.291C380.112 335.381 379.7 335.512 379.3 335.687C378.9 335.859 378.519 336.072 378.162 336.319C377.803 336.566 377.472 336.847 377.166 337.159C376.862 337.472 376.594 337.812 376.356 338.178C376.119 338.547 375.919 338.931 375.759 339.337C375.597 339.744 375.478 340.159 375.397 340.591C375.319 341.019 375.281 341.45 375.287 341.887C375.287 360.744 370.647 372.75 366.262 380.062C361.878 387.375 358.3 389.591 358.3 389.591C357.931 389.828 357.587 390.103 357.272 390.409C356.953 390.716 356.672 391.053 356.422 391.416C356.172 391.781 355.959 392.166 355.787 392.572C355.612 392.978 355.481 393.397 355.391 393.828C355.303 394.259 355.256 394.697 355.253 395.137C355.25 395.581 355.291 396.016 355.375 396.45C355.456 396.884 355.584 397.306 355.75 397.712C355.919 398.122 356.125 398.509 356.369 398.875C356.612 399.244 356.891 399.584 357.203 399.894C357.516 400.206 357.856 400.484 358.225 400.728C358.591 400.975 358.978 401.178 359.387 401.347C359.797 401.512 360.216 401.637 360.65 401.722C361.081 401.803 361.519 401.844 361.959 401.841C362.403 401.837 362.837 401.787 363.269 401.697C363.7 401.606 364.119 401.475 364.525 401.3C364.931 401.125 365.316 400.916 365.678 400.662C365.678 400.662 372.075 396.237 377.666 386.912C383.256 377.587 388.587 362.962 388.587 341.887C388.594 341.444 388.556 341 388.472 340.562C388.391 340.125 388.266 339.7 388.097 339.287C387.931 338.875 387.722 338.484 387.478 338.112C387.231 337.744 386.95 337.4 386.634 337.084C386.322 336.772 385.978 336.491 385.606 336.247C385.234 336 384.844 335.794 384.431 335.628C384.019 335.459 383.594 335.334 383.156 335.253C382.719 335.172 382.278 335.134 381.834 335.141Z" fill="black"/>
</g>
</g>
<defs>
<clipPath id="clip0_20_6">
<rect width="307.2" height="307.2" fill="white" transform="translate(102 102)"/>
</clipPath>
</defs>
</svg>
