<svg width="512" height="512" viewBox="0 0 512 512" fill="none" xmlns="http://www.w3.org/2000/svg">
<circle cx="256" cy="256" r="256" fill="#81C784"/>
<path d="M310.171 116.749L281.516 145.404L220.834 141.19L196.252 189.632L237.465 204.842L259.757 192.88L264.863 202.397L238.288 216.658L190.468 199.008L148.354 232.213L169.424 267.61L169.199 267.73L177.007 280.681L194.488 282.097L227.524 261.023L233.331 270.129L197.235 293.155L170.617 290.998L159.679 272.857L125.599 291.209L145.826 328.291L125.598 352.732L112.8 368.506V398.4H215.172L211.812 371.045C210.771 370.156 209.741 369.254 208.724 368.338C206.212 366.081 205.19 365.071 203.908 363.847L160.03 376.925L147.226 364.635L154.706 356.844L162.973 364.779L206.813 351.711L209.084 353.911C209.084 353.911 211.628 356.365 214.613 359.093L237.292 336.744L242.171 384.468L245.951 328.402L252.17 345.434L255.938 318.367L257.822 316.512L257.648 316.372L271.14 299.588L271.419 299.044L271.532 299.101L278.404 290.552L286.822 297.319L281.348 304.127L322.03 324.956L338.235 319.263L351.722 329.889L365.476 322.667L370.496 332.23L350.539 342.706L336.214 331.42L321.236 336.683L315.485 333.739L338.909 386.444L332.354 398.4H398.4V381.293L379.628 388.92L375.562 378.913L398.4 369.636V228.706L384.337 212.828L371.345 172.405L351.217 192.005L286.555 183.681L269.743 166.223L277.523 158.732L291.701 173.455L347.421 180.627L366.286 162.258L334.612 125.177L310.171 116.749ZM326.689 223.393L347.195 248.25L364.513 244.314L362.031 236.16L372.363 233.014L378.225 252.273L343.099 260.257L324.273 237.437L304.421 249.349L298.864 240.088L326.689 223.393Z" fill="black"/>
</svg>
