<svg width="512" height="512" viewBox="0 0 512 512" fill="none" xmlns="http://www.w3.org/2000/svg">
<circle cx="256" cy="256" r="256" fill="#81C784"/>
<path d="M131.493 104.8L194.873 199.251L193.891 183.149L141.331 104.8H131.493ZM157.891 104.8L260.131 185.374L256.858 158.014L336.385 242.778L356.873 407.2H390.713V104.8H157.891ZM204.036 169.076L206.393 209.527C203.12 214.371 190.618 230.8 169.149 233.614C166.465 233.942 164.436 236.233 164.436 238.982C164.436 238.982 163.913 263.331 194.349 293.374L217.062 256.916C212.48 252.138 207.898 246.116 202.989 238.131L221.055 218.429C222.233 217.185 222.691 215.549 222.429 213.847L214.836 167.898C213.069 160.567 203.774 162.989 204.036 169.076ZM158.349 186.749C152.327 186.749 147.287 189.236 144.734 193.491C140.087 201.214 144.669 212.538 155.076 218.756C165.484 224.974 177.658 223.6 182.24 215.811C186.822 208.022 182.175 196.763 171.833 190.611C167.578 188.123 162.865 186.749 158.349 186.749ZM260.131 236.625L232.247 258.029L224.327 310.458C232.444 312.487 240.953 313.076 249.396 311.898L264.124 309.869L294.167 342.858C295.411 344.167 297.178 344.822 298.945 344.56L317.927 341.942C325.258 339.782 322.64 331.142 317.011 331.076L303.004 331.534L282.975 288.269C282.255 286.829 281.011 285.782 279.505 285.323L254.175 277.993L268.967 265.294L303.2 277.6C306.276 278.582 309.287 276.88 310.269 274.131L317.142 251.876C318.255 244.48 309.484 242.974 306.996 247.949L301.695 259.142L266.414 236.363C264.32 235.185 261.964 235.382 260.131 236.625ZM218.698 274.982L202.793 300.443C206.262 302.931 209.993 305.091 213.854 306.793L218.698 274.982ZM231.134 323.614L251.753 407.2H260.131L239.578 323.811C236.764 323.876 233.949 323.811 231.134 323.614Z" fill="black"/>
</svg>
