<svg width="512" height="512" viewBox="0 0 512 512" fill="none" xmlns="http://www.w3.org/2000/svg">
<circle cx="256" cy="256" r="256" fill="#81C784"/>
<path d="M191.6 396.4L230.96 197.36C232.24 191.173 235.12 186.531 239.6 183.434C244.08 180.336 248.773 178.792 253.68 178.8C258.587 178.809 263.122 179.875 267.286 182C271.451 184.125 274.808 187.325 277.36 191.6L290.16 212.08C294 218.267 298.962 223.869 305.046 228.886C311.131 233.904 318.115 237.582 326 239.92V217.2H345.2V396.4H326V266.48C315.76 264.133 306.267 260.4 297.52 255.28C288.773 250.16 281.2 243.867 274.8 236.4L267.12 274.8L294 300.4V396.4H268.4V319.6L241.52 294L218.48 396.4H191.6ZM197.04 270L169.84 264.88C166.427 264.24 163.76 262.478 161.84 259.594C159.92 256.709 159.28 253.458 159.92 249.84L169.52 199.6C170.8 192.773 174.427 187.385 180.4 183.434C186.373 179.483 192.773 178.152 199.6 179.44L214.32 182.32L197.04 270ZM274.8 172.4C267.76 172.4 261.735 169.896 256.726 164.886C251.717 159.877 249.208 153.849 249.2 146.8C249.191 139.752 251.7 133.727 256.726 128.726C261.752 123.726 267.777 121.217 274.8 121.2C281.823 121.183 287.852 123.692 292.886 128.726C297.921 133.761 300.426 139.786 300.4 146.8C300.374 153.814 297.87 159.843 292.886 164.886C287.903 169.93 281.874 172.434 274.8 172.4Z" fill="black"/>
</svg>
