<svg width="512" height="512" viewBox="0 0 512 512" fill="none" xmlns="http://www.w3.org/2000/svg">
<circle cx="256" cy="256" r="256" fill="#81C784"/>
<path d="M192.32 253.76L202.88 232C205.013 227.52 208.162 224 212.326 221.44C216.491 218.88 221.022 217.6 225.92 217.6H243.2V140.8C243.2 137.173 244.429 134.135 246.886 131.686C249.344 129.237 252.382 128.009 256 128H322.56C324.907 128 326.72 129.015 328 131.046C329.28 133.077 329.387 135.155 328.32 137.28L321.28 150.72C320.853 151.787 320.64 152.747 320.64 153.6C320.64 154.453 320.853 155.413 321.28 156.48L328.32 169.92C329.387 172.053 329.28 174.131 328 176.154C326.72 178.176 324.907 179.191 322.56 179.2H268.8V217.6H285.12C290.027 217.6 294.455 218.88 298.406 221.44C302.357 224 305.502 227.413 307.84 231.68L319.04 254.08L280.64 279.68L256 267.2L231.36 279.68L192.32 253.76ZM169.28 384C159.68 384 152.375 380.002 147.366 372.006C142.357 364.011 141.982 355.742 146.24 347.2L180.8 276.8L229.44 309.12L256 296L282.56 309.12L330.56 277.44L365.44 346.88C369.707 355.413 369.331 363.733 364.314 371.84C359.296 379.947 351.991 384 342.4 384H169.28Z" fill="black"/>
</svg>
