<svg width="512" height="512" viewBox="0 0 512 512" fill="none" xmlns="http://www.w3.org/2000/svg">
<circle cx="256" cy="256" r="256" fill="#81C784"/>
<g clip-path="url(#clip0_62_8)">
<path d="M281.2 103.219C280.203 103.219 279.206 103.269 278.212 103.366C277.219 103.462 276.234 103.609 275.253 103.803C274.275 104 273.309 104.241 272.353 104.531C271.397 104.822 270.459 105.156 269.537 105.537C268.616 105.922 267.712 106.347 266.834 106.819C265.953 107.287 265.097 107.8 264.269 108.356C263.437 108.909 262.637 109.503 261.866 110.138C261.094 110.769 260.356 111.441 259.65 112.147C258.944 112.85 258.275 113.591 257.641 114.363C257.009 115.134 256.416 115.934 255.859 116.762C255.306 117.594 254.794 118.45 254.322 119.328C253.853 120.209 253.425 121.109 253.044 122.031C252.662 122.953 252.325 123.894 252.037 124.85C251.747 125.803 251.503 126.772 251.309 127.75C251.116 128.728 250.969 129.716 250.872 130.709C250.772 131.7 250.725 132.697 250.725 133.694C250.725 134.694 250.772 135.691 250.872 136.681C250.969 137.675 251.116 138.663 251.309 139.641C251.503 140.619 251.747 141.588 252.037 142.541C252.325 143.497 252.662 144.434 253.044 145.359C253.425 146.281 253.853 147.181 254.322 148.062C254.794 148.941 255.306 149.797 255.859 150.628C256.416 151.456 257.009 152.256 257.641 153.028C258.275 153.8 258.944 154.541 259.65 155.244C260.356 155.95 261.094 156.622 261.866 157.253C262.637 157.888 263.437 158.481 264.269 159.034C265.097 159.591 265.953 160.103 266.834 160.572C267.712 161.044 268.616 161.469 269.537 161.85C270.459 162.234 271.397 162.569 272.353 162.859C273.309 163.15 274.275 163.391 275.253 163.584C276.234 163.781 277.219 163.928 278.212 164.025C279.206 164.122 280.203 164.172 281.2 164.172C282.197 164.172 283.194 164.122 284.187 164.025C285.181 163.928 286.166 163.781 287.147 163.584C288.125 163.391 289.091 163.15 290.047 162.859C291.003 162.569 291.941 162.234 292.862 161.85C293.784 161.469 294.687 161.044 295.566 160.572C296.447 160.103 297.303 159.591 298.131 159.034C298.962 158.481 299.762 157.888 300.534 157.253C301.306 156.622 302.044 155.95 302.75 155.244C303.456 154.541 304.125 153.8 304.759 153.028C305.391 152.256 305.984 151.456 306.541 150.628C307.094 149.797 307.606 148.941 308.078 148.062C308.547 147.181 308.975 146.281 309.356 145.359C309.738 144.434 310.075 143.497 310.363 142.541C310.653 141.588 310.897 140.619 311.091 139.641C311.284 138.663 311.431 137.675 311.528 136.681C311.628 135.691 311.675 134.694 311.675 133.694C311.675 132.697 311.628 131.7 311.528 130.709C311.431 129.716 311.284 128.728 311.091 127.75C310.897 126.772 310.653 125.803 310.363 124.85C310.075 123.894 309.738 122.953 309.356 122.031C308.975 121.109 308.547 120.209 308.078 119.328C307.606 118.45 307.094 117.594 306.541 116.762C305.984 115.934 305.391 115.134 304.759 114.363C304.125 113.591 303.456 112.85 302.75 112.147C302.044 111.441 301.306 110.769 300.534 110.138C299.762 109.503 298.962 108.909 298.131 108.356C297.303 107.8 296.447 107.287 295.566 106.819C294.687 106.347 293.784 105.922 292.862 105.537C291.941 105.156 291.003 104.822 290.047 104.531C289.091 104.241 288.125 104 287.147 103.803C286.166 103.609 285.181 103.462 284.187 103.366C283.194 103.269 282.197 103.219 281.2 103.219ZM172.034 139.884C162.241 140.259 152.5 144.284 144.725 151.909L111.272 185.481C102.969 194.928 101.516 209.488 110.962 217.791C117.131 224.263 125.037 226.291 132.509 224.266C135.253 216.978 139.4 210.231 145.034 204.625C145.387 204.209 145.787 203.8 146.175 203.409L199.675 149.816C191.666 142.788 181.825 139.509 172.034 139.884ZM232.437 164.172C224.637 164.169 216.841 167.144 210.891 173.1H210.866L163.416 220.647V220.672C161.809 222.1 160.372 223.678 159.103 225.412C157.831 227.144 156.756 228.991 155.875 230.947C154.997 232.906 154.331 234.938 153.878 237.038C153.428 239.137 153.203 241.262 153.2 243.409C153.2 245.047 153.334 246.675 153.597 248.291C153.859 249.906 154.25 251.491 154.769 253.044C155.287 254.597 155.928 256.097 156.687 257.547C157.45 258.997 158.322 260.378 159.306 261.688C160.287 262.997 161.369 264.219 162.55 265.353C163.728 266.488 164.994 267.522 166.341 268.453C167.687 269.384 169.1 270.2 170.578 270.906C172.056 271.609 173.581 272.191 175.153 272.647V272.672L234.294 293.291L266.319 354.266C266.453 354.65 266.606 355.028 266.778 355.397C266.95 355.762 267.141 356.122 267.347 356.472C267.556 356.822 267.781 357.159 268.022 357.488C268.266 357.816 268.522 358.128 268.794 358.431C269.069 358.731 269.356 359.019 269.656 359.291C269.959 359.562 270.275 359.822 270.603 360.062C270.928 360.303 271.269 360.528 271.619 360.734C271.969 360.941 272.328 361.131 272.697 361.3C273.066 361.472 273.441 361.625 273.825 361.759C274.209 361.891 274.6 362.006 274.997 362.1C275.391 362.194 275.791 362.269 276.194 362.325C276.597 362.378 277.003 362.413 277.409 362.425C277.816 362.441 278.222 362.434 278.628 362.406C279.031 362.381 279.437 362.334 279.837 362.266C280.237 362.2 280.634 362.113 281.028 362.006C281.419 361.9 281.806 361.772 282.187 361.628C282.566 361.481 282.937 361.319 283.3 361.134C283.666 360.953 284.019 360.753 284.362 360.534C284.706 360.316 285.037 360.081 285.356 359.831C285.675 359.581 285.981 359.312 286.275 359.031C286.569 358.75 286.847 358.453 287.112 358.144C287.375 357.834 287.622 357.512 287.853 357.178C288.084 356.844 288.3 356.497 288.497 356.141C288.694 355.788 288.872 355.422 289.031 355.047C289.194 354.675 289.334 354.294 289.456 353.906C289.578 353.516 289.681 353.125 289.762 352.725C289.847 352.328 289.909 351.925 289.953 351.522C289.994 351.119 290.016 350.713 290.019 350.306C290.022 349.897 290.003 349.494 289.966 349.088C289.925 348.681 289.866 348.281 289.787 347.881C289.709 347.481 289.612 347.088 289.494 346.7C289.375 346.309 289.237 345.928 289.081 345.553L264.225 272.409C263.709 270.887 262.925 269.519 261.869 268.306C260.812 267.094 259.566 266.128 258.128 265.409L219.366 246.028L216.225 244.291L246.2 213.316L275.153 223.528L275.416 223.672C277.222 224.641 279.15 225.125 281.2 225.125H336.056C336.459 225.128 336.863 225.116 337.262 225.081C337.666 225.047 338.062 224.994 338.459 224.919C338.856 224.847 339.247 224.753 339.634 224.641C340.022 224.528 340.4 224.397 340.775 224.247C341.15 224.097 341.516 223.928 341.872 223.741C342.228 223.553 342.575 223.35 342.913 223.131C343.25 222.909 343.575 222.672 343.887 222.419C344.203 222.166 344.503 221.897 344.788 221.616C345.075 221.331 345.347 221.034 345.606 220.725C345.863 220.416 346.103 220.094 346.331 219.759C346.556 219.425 346.766 219.081 346.956 218.728C347.147 218.372 347.322 218.009 347.475 217.638C347.631 217.266 347.769 216.888 347.887 216.503C348.003 216.119 348.103 215.728 348.181 215.334C348.262 214.938 348.322 214.541 348.363 214.138C348.4 213.738 348.422 213.338 348.422 212.934C348.422 212.531 348.4 212.128 348.363 211.728C348.322 211.328 348.262 210.928 348.181 210.534C348.103 210.138 348.003 209.75 347.887 209.363C347.769 208.978 347.631 208.6 347.475 208.228C347.322 207.856 347.147 207.494 346.956 207.138C346.766 206.784 346.556 206.441 346.331 206.106C346.103 205.772 345.863 205.45 345.606 205.141C345.347 204.831 345.075 204.534 344.788 204.253C344.503 203.969 344.203 203.7 343.887 203.447C343.575 203.194 343.25 202.956 342.913 202.738C342.575 202.516 342.228 202.312 341.872 202.125C341.516 201.941 341.15 201.772 340.775 201.622C340.4 201.472 340.022 201.341 339.634 201.228C339.247 201.116 338.856 201.022 338.459 200.947C338.062 200.875 337.666 200.819 337.262 200.784C336.863 200.75 336.459 200.738 336.056 200.744H291.794L249.247 169.244C244.162 165.872 238.309 164.172 232.437 164.172ZM354.344 237.316C324.191 237.316 299.484 262.019 299.484 292.172C299.484 322.325 324.191 347.028 354.344 347.028C384.494 347.028 409.2 322.325 409.2 292.172C409.2 262.019 384.494 237.316 354.344 237.316ZM354.344 261.694C371.319 261.694 384.819 275.197 384.819 292.172C384.819 309.147 371.319 322.647 354.344 322.647C337.366 322.647 323.866 309.147 323.866 292.172C323.866 275.197 337.366 261.694 354.344 261.694ZM171.484 298.266C141.334 298.266 116.628 322.972 116.628 353.125C116.628 383.275 141.334 407.981 171.484 407.981C201.637 407.981 226.344 383.275 226.344 353.125C226.344 322.972 201.637 298.266 171.484 298.266ZM171.484 322.647C188.462 322.647 201.962 336.147 201.962 353.125C201.962 370.1 188.462 383.6 171.484 383.6C154.509 383.6 141.009 370.1 141.009 353.125C141.009 336.147 154.509 322.647 171.484 322.647Z" fill="black"/>
</g>
<defs>
<clipPath id="clip0_62_8">
<rect width="307.2" height="307.2" fill="white" transform="translate(102 102)"/>
</clipPath>
</defs>
</svg>
