<svg width="512" height="512" viewBox="0 0 512 512" fill="none" xmlns="http://www.w3.org/2000/svg">
<circle cx="256" cy="256" r="256" fill="#81C784"/>
<path d="M230.4 147.2C230.4 136.576 238.976 128 249.6 128C260.224 128 268.8 136.576 268.8 147.2C268.8 157.824 260.224 166.4 249.6 166.4C238.976 166.4 230.4 157.824 230.4 147.2ZM384 204.8V249.6L370.816 254.08C369.738 261.703 365.948 268.682 360.141 273.737C354.334 278.792 346.899 281.583 339.2 281.6H338.176C336.384 290.304 332.16 298.112 326.4 304.384V384H294.4V320H291.2C288.512 320 285.824 319.616 283.264 319.232L226.432 309.76L212.096 335.488L221.696 384H189.184L179.2 336C178.816 332.16 179.2 328.32 181.248 324.992L194.304 301.824C187.949 298.291 182.623 293.163 178.853 286.946C175.082 280.729 172.996 273.637 172.8 266.368C172.288 268.288 172.032 271.104 172.416 275.2C172.8 280.832 174.208 289.152 173.312 298.368C172.8 307.584 168.576 317.056 163.2 323.328C157.696 329.6 151.68 333.952 145.28 337.28L136.32 328.32C138.752 322.304 141.184 316.928 141.696 311.936C142.464 307.2 141.568 303.36 140.16 299.904L133.376 285.44C130.688 278.912 127.36 269.44 128 258.304C128.384 247.424 134.4 233.216 145.792 225.408C157.312 217.6 169.728 216.448 179.84 218.624C186.24 219.904 192.768 222.976 198.4 227.328C203.136 225.152 208.64 224 214.4 224H217.6V206.208C217.6 193.408 226.304 181.632 238.848 179.584C242.523 178.95 246.292 179.127 249.892 180.101C253.491 181.076 256.834 182.826 259.687 185.227C262.54 187.629 264.834 190.625 266.408 194.006C267.982 197.387 268.798 201.071 268.8 204.8V224H288V217.6C288 189.312 310.912 166.4 339.2 166.4H384L372.608 183.552C379.52 188.16 384 195.968 384 204.8ZM358.4 245.76L345.088 224.512C343.424 221.824 339.2 222.976 339.2 226.176V268.8C349.824 268.8 358.4 260.224 358.4 249.6V245.76Z" fill="black"/>
</svg>
