<svg width="512" height="512" viewBox="0 0 512 512" fill="none" xmlns="http://www.w3.org/2000/svg">
<circle cx="256" cy="256" r="256" fill="#81C784"/>
<path d="M141.918 234.803C139.823 239.134 138.733 243.883 138.729 248.695L139.915 323.191L114.08 378.634C113.14 380.358 112.514 382.234 112.23 384.176C111.898 386.355 111.999 388.579 112.528 390.719C113.057 392.859 114.004 394.873 115.315 396.646C116.625 398.419 118.273 399.915 120.163 401.049C122.054 402.183 124.15 402.932 126.331 403.253C129.729 403.778 133.206 403.241 136.288 401.718C139.37 400.194 141.907 397.756 143.553 394.738L171.975 334.133C172.564 332.726 173.093 331.246 173.308 329.624L173.461 327.338L173.24 281.283L216.918 300.28L223.971 345.291C224.704 348.599 226.423 351.606 228.901 353.916C231.379 356.227 234.5 357.731 237.851 358.23C242.249 358.881 246.726 357.772 250.312 355.144C253.898 352.516 256.304 348.581 257.008 344.191C257.223 342.637 257.223 341.082 257.075 339.608L248.467 285.27C247.951 282.663 246.829 280.213 245.192 278.119C243.555 276.025 241.448 274.346 239.043 273.215L200.004 255.939L224.862 212.844L237.193 228.444C238.453 229.845 240.087 231.031 241.936 231.768L288.926 245.438C291.965 246.102 295.141 245.674 297.896 244.229C300.651 242.784 302.809 240.415 303.991 237.537C304.645 235.929 304.977 234.208 304.966 232.472C304.955 230.736 304.601 229.019 303.926 227.42C303.251 225.82 302.268 224.37 301.032 223.151C299.795 221.932 298.331 220.968 296.722 220.316L296.053 220.094L255.226 208.12L224.494 171.385C219.752 166.326 213.458 162.994 206.608 161.917C200.694 161.035 194.652 161.902 189.224 164.41C183.796 166.919 179.221 170.96 176.06 176.036L141.918 234.803ZM276.711 341.61L273.744 363.932L192.913 383.513L193.694 397.312H390.83C392.484 397.319 394.123 397 395.653 396.373C397.184 395.745 398.575 394.822 399.748 393.656C400.921 392.49 401.852 391.104 402.489 389.577C403.125 388.051 403.454 386.414 403.456 384.76L403.235 120.144L376.226 113.865L360.706 183.433L334.76 194.296L311.751 258.445L333.611 307.53L327.455 326.373L276.711 341.61ZM221.827 158.661C235.706 158.661 246.987 147.429 246.987 133.605C246.981 119.787 235.706 108.544 221.827 108.544C207.948 108.544 196.661 119.787 196.661 133.605C196.655 147.429 207.942 158.661 221.827 158.661ZM171.76 162.58C172.228 161.765 172.531 160.865 172.65 159.933C172.769 159 172.703 158.053 172.454 157.146C172.206 156.239 171.781 155.39 171.203 154.648C170.625 153.906 169.906 153.286 169.087 152.824L156.91 145.727C155.244 144.784 153.275 144.535 151.427 145.033C149.579 145.53 148.002 146.736 147.036 148.388L109.484 212.924C109.018 213.74 108.717 214.639 108.598 215.571C108.48 216.503 108.546 217.449 108.794 218.356C109.042 219.262 109.466 220.11 110.042 220.853C110.618 221.595 111.334 222.216 112.151 222.681L124.402 229.71C126.046 230.658 127.998 230.918 129.833 230.432C131.667 229.946 133.236 228.755 134.195 227.117L171.76 162.58Z" fill="black"/>
</svg>
