<svg width="542" height="542" viewBox="0 0 542 542" fill="none" xmlns="http://www.w3.org/2000/svg">
<g filter="url(#filter0_d_12_3)">
<circle cx="271" cy="271" r="256" fill="#81C784"/>
<path d="M228.4 152.554C219.4 152.326 210.4 160.414 208.54 172.612C206.56 185.62 213.82 196.6 223.42 198.04C233.02 199.48 243.16 191.14 245.08 178.12C247.06 165.088 239.86 154.156 230.2 152.71C229.6 152.62 229 152.566 228.4 152.554ZM296.38 198.88L286.06 202L291.04 218.86L302.38 219.16L296.38 198.88ZM209.62 203.44C208 245.74 209.38 287.98 207.46 324.94C197.98 346.42 185.44 367.06 177.232 384.46L192.64 391.9C205.12 371.68 217.96 351.1 225.76 330.16L232.54 292.12L264.34 319.66L274.06 372.52L291.64 369.04L281.08 308.68L246.22 276.52L240.64 224.68L269.5 243.46C285.52 244 296.56 242.32 311.26 240.04L311.86 230.26L269.38 229L241.48 203.8C235.78 207.82 228.94 209.8 221.8 208.72C217.18 208 213.1 206.14 209.62 203.44ZM199.66 211.24L175.378 218.26L171.802 269.56C179.92 273.58 190.42 276.52 197.74 271.6L199.66 211.24ZM411.28 250.42L353.86 297.28L334.66 328.42L311.8 250.9C308.02 251.44 304.48 251.98 301 252.46L327.1 340.72L313.54 362.74L301.9 364.78L304.12 377.56L265.42 385.24L262.9 371.62L212.32 380.5C206.62 389.86 202.06 397.24 196.72 405.82L167.008 391.48L129.424 412.36H411.28V250.42Z" fill="black"/>
</g>
<defs>
<filter id="filter0_d_12_3" x="0" y="0" width="542" height="542" filterUnits="userSpaceOnUse" color-interpolation-filters="sRGB">
<feFlood flood-opacity="0" result="BackgroundImageFix"/>
<feColorMatrix in="SourceAlpha" type="matrix" values="0 0 0 0 0 0 0 0 0 0 0 0 0 0 0 0 0 0 127 0" result="hardAlpha"/>
<feOffset/>
<feGaussianBlur stdDeviation="7.5"/>
<feComposite in2="hardAlpha" operator="out"/>
<feColorMatrix type="matrix" values="0 0 0 0 0 0 0 0 0 0 0 0 0 0 0 0 0 0 0.5 0"/>
<feBlend mode="normal" in2="BackgroundImageFix" result="effect1_dropShadow_12_3"/>
<feBlend mode="normal" in="SourceGraphic" in2="effect1_dropShadow_12_3" result="shape"/>
</filter>
</defs>
</svg>
