<svg width="512" height="512" viewBox="0 0 512 512" fill="none" xmlns="http://www.w3.org/2000/svg">
<circle cx="256" cy="256" r="256" fill="#81C784"/>
<path d="M130.146 113.2L232.25 156.959L236.801 168.348L247.708 195.64L263.773 202.532L261.126 232.24C263.463 230.886 265.874 229.572 268.387 228.346L268.798 228.146L269.238 228.017C270.277 227.714 271.335 227.483 272.406 227.327L274.217 207.012L287.109 212.541L325.833 197.066L398.8 228.337V216.587L314.054 180.268C320.318 176.928 324.618 170.324 324.618 162.781C324.618 151.909 315.69 142.981 304.818 142.981C299.466 142.981 294.588 145.147 291.012 148.641C291.012 148.554 291.018 148.468 291.018 148.381C291.018 137.509 282.09 128.581 271.218 128.581C260.346 128.581 251.418 137.509 251.418 148.381C251.418 150.239 251.684 152.037 252.17 153.745L157.562 113.2H130.146ZM271.218 139.381C276.252 139.381 280.218 143.347 280.218 148.381C280.218 153.415 276.252 157.381 271.218 157.381C266.183 157.381 262.218 153.415 262.218 148.381C262.218 143.347 266.183 139.381 271.218 139.381ZM304.818 153.781C309.852 153.781 313.818 157.747 313.818 162.781C313.818 167.815 309.852 171.781 304.818 171.781C299.783 171.781 295.818 167.815 295.818 162.781C295.818 157.747 299.783 153.781 304.818 153.781ZM285.024 162.521C285.024 162.608 285.018 162.695 285.018 162.782C285.018 164.639 285.284 166.437 285.77 168.146L280.454 165.868C282.129 164.974 283.668 163.847 285.025 162.52L285.024 162.521ZM251.667 176.448L298.287 196.445L287.255 200.853L256.076 187.479L251.667 176.448ZM198.38 203.127C197.441 203.145 196.533 203.294 195.662 203.568C192.179 204.669 189.368 207.765 187.79 212.873C186.213 217.982 186.171 224.839 188.374 231.809C190.577 238.779 194.552 244.367 198.778 247.641C203.005 250.915 207.085 251.831 210.568 250.731C214.05 249.629 216.862 246.535 218.439 241.427C220.017 236.318 220.059 229.461 217.856 222.491C215.652 215.52 211.678 209.934 207.452 206.66C204.282 204.204 201.195 203.074 198.38 203.126V203.127ZM275.339 237.922C274.499 237.924 273.571 238.082 272.613 238.33C262.602 243.306 253.429 250.422 243.045 255.984C232.57 261.594 220.44 265.416 205.933 262.503C198.756 261.797 196.055 265.005 195.307 268.469C194.576 271.848 195.799 276.007 202 278.525C235.208 281.564 262.742 259.766 278.011 247.238C278.012 247.238 278.011 247.237 278.012 247.236C280.429 245.208 281.264 243.521 281.492 242.489C281.72 241.457 281.555 240.911 281.036 240.191C280.259 239.111 278.174 237.913 275.337 237.923L275.339 237.922ZM205.934 262.503C205.991 262.509 206.042 262.509 206.1 262.515L205.57 262.433C205.692 262.458 205.812 262.479 205.934 262.503L205.934 262.503ZM268.781 268.01C265.298 270.454 261.515 272.915 257.464 275.261C259.872 280.829 261.876 287.198 263.431 294.455C264.397 294.523 265.407 294.611 266.404 294.694L268.781 268.01ZM247.889 280.284C235.673 286.023 221.536 290.09 205.939 289.608C207.68 292.272 209.655 294.9 211.774 297.431C215.254 301.586 219.154 305.503 222.928 308.961C227.516 308.333 234.751 306.308 240.928 303.476C244.759 301.719 248.288 299.675 250.771 297.734C251.47 297.188 252.126 296.59 252.735 295.946C251.406 289.928 249.765 284.748 247.889 280.284L247.889 280.284ZM258.296 305.504C258 305.746 257.726 306.003 257.422 306.24C253.979 308.933 249.83 311.274 245.431 313.292C241.477 315.105 237.409 316.67 233.455 317.829C236.864 320.472 239.383 322.217 240.111 322.661C245.025 325.663 252.692 327.467 260.887 328.385C263.248 320.948 261.434 313.619 258.297 305.503L258.296 305.504ZM269.901 305.811C272.352 313.157 273.781 320.967 271.889 329.105C273.446 329.141 274.989 329.151 276.499 329.135C289.525 328.988 300.15 327.38 300.15 327.38L308.895 326.052L306.08 334.438C301.582 347.832 299.981 357.29 295.786 369.861L329.154 384.821L334.805 373.437L311.049 363.255L313.856 358.055C316.001 354.08 319.464 345.933 322.13 337.665C324.507 330.292 326.096 322.681 326.226 318.091C326.198 318.073 326.21 318.071 326.18 318.054C325.16 317.451 323.371 316.64 321.11 315.828C316.589 314.202 310.157 312.5 302.982 310.976C292.554 308.76 280.503 306.9 269.902 305.811L269.901 305.811ZM289.187 339.371C285.811 339.627 281.966 339.839 277.795 339.914L262.137 366.105L283.253 373.107L284.058 370.923C285.106 368.079 286.072 365.205 286.956 362.305L278.511 359.215L289.187 339.371V339.371Z" fill="black"/>
</svg>
